<mxfile host="app.diagrams.net" modified="2023-04-05T10:39:50.357Z" agent="Mozilla/5.0 (Macintosh; Intel Mac OS X 10_15_7) AppleWebKit/537.36 (KHTML, like Gecko) Chrome/110.0.0.0 Safari/537.36" etag="rSPAGrNSTdYKCjZ4JNqv" version="21.1.4" type="github">
  <diagram name="Page-1" id="W5agwLUjzMD3B1F4tz7b">
    <mxGraphModel dx="954" dy="545" grid="1" gridSize="10" guides="1" tooltips="1" connect="1" arrows="1" fold="1" page="1" pageScale="1" pageWidth="827" pageHeight="1169" math="0" shadow="0">
      <root>
        <mxCell id="0" />
        <mxCell id="1" parent="0" />
        <mxCell id="AyBuVYPxz2zy9ibKqEu_-2" value="" style="whiteSpace=wrap;html=1;aspect=fixed;fillColor=#f5f5f5;strokeColor=#666666;fontColor=#333333;" vertex="1" parent="1">
          <mxGeometry x="20" y="220" width="810" height="810" as="geometry" />
        </mxCell>
        <mxCell id="AyBuVYPxz2zy9ibKqEu_-11" style="edgeStyle=orthogonalEdgeStyle;rounded=0;orthogonalLoop=1;jettySize=auto;html=1;exitX=0.5;exitY=1;exitDx=0;exitDy=0;" edge="1" parent="1" source="AyBuVYPxz2zy9ibKqEu_-5" target="AyBuVYPxz2zy9ibKqEu_-9">
          <mxGeometry relative="1" as="geometry" />
        </mxCell>
        <mxCell id="AyBuVYPxz2zy9ibKqEu_-5" value="" style="rounded=1;whiteSpace=wrap;html=1;fillColor=#f9f7ed;strokeColor=#36393d;" vertex="1" parent="1">
          <mxGeometry x="300" y="240" width="150" height="60" as="geometry" />
        </mxCell>
        <mxCell id="AyBuVYPxz2zy9ibKqEu_-7" value="{column_family}" style="text;html=1;strokeColor=none;fillColor=none;align=center;verticalAlign=middle;whiteSpace=wrap;rounded=0;" vertex="1" parent="1">
          <mxGeometry x="315" y="255" width="120" height="30" as="geometry" />
        </mxCell>
        <mxCell id="AyBuVYPxz2zy9ibKqEu_-8" value="" style="shape=image;verticalLabelPosition=bottom;labelBackgroundColor=default;verticalAlign=top;aspect=fixed;imageAspect=0;image=data:image/png,iVBORw0KGgoAAAANSUhEUgAAAtgAAADFCAYAAABuBIVpAAABYWlDQ1BJQ0MgUHJvZmlsZQAAKJF1kTFLw1AUhU+0pSARO4g4OGRwUKgiqWI3aTsUoUOsCuqWpjEttOkjjZTi4iDuAXF0aQfFXRcHEX+AWHBQBDd/gJBBDfG+Vk2reOFyPw7vHg73AQOiylg5BKBi2lYuk5I2NrekyAtCCGOY5LCq1VhSUbLE+J795d5D4LM9w71K3tv0QmtXv7upR4/O2qd/3/fVUEGvaTQ/qGWNWTYgzBErdZtx3iMetSgU8SFno8snnPNdvuy8WculiW+Jo1pRLRA/E8fyPbrRw5XyjvaVgacXdXN9leYY9QRS0GFiBRIyyELGIhKgVP/szHd20qiCoQELJRgowqbtJCkMZXKTsEyOGmYRI5bJTUac3/r3DQOt2gISLjDoBFqebnBxAIw/BNrkMTCyD5xfM9VSfy4ruKHadlzusrhEX/nk+69TQMQBPMf335u+7zXJ/xG4anwCIrhlhMpguMYAAABWZVhJZk1NACoAAAAIAAGHaQAEAAAAAQAAABoAAAAAAAOShgAHAAAAEgAAAESgAgAEAAAAAQAAAtigAwAEAAAAAQAAAMUAAAAAQVNDSUkAAABTY3JlZW5zaG90bgaHIgAAAdZpVFh0WE1MOmNvbS5hZG9iZS54bXAAAAAAADx4OnhtcG1ldGEgeG1sbnM6eD0iYWRvYmU6bnM6bWV0YS8iIHg6eG1wdGs9IlhNUCBDb3JlIDYuMC4wIj4KICAgPHJkZjpSREYgeG1sbnM6cmRmPSJodHRwOi8vd3d3LnczLm9yZy8xOTk5LzAyLzIyLXJkZi1zeW50YXgtbnMjIj4KICAgICAgPHJkZjpEZXNjcmlwdGlvbiByZGY6YWJvdXQ9IiIKICAgICAgICAgICAgeG1sbnM6ZXhpZj0iaHR0cDovL25zLmFkb2JlLmNvbS9leGlmLzEuMC8iPgogICAgICAgICA8ZXhpZjpQaXhlbFlEaW1lbnNpb24+MTk3PC9leGlmOlBpeGVsWURpbWVuc2lvbj4KICAgICAgICAgPGV4aWY6UGl4ZWxYRGltZW5zaW9uPjcyODwvZXhpZjpQaXhlbFhEaW1lbnNpb24+CiAgICAgICAgIDxleGlmOlVzZXJDb21tZW50PlNjcmVlbnNob3Q8L2V4aWY6VXNlckNvbW1lbnQ+CiAgICAgIDwvcmRmOkRlc2NyaXB0aW9uPgogICA8L3JkZjpSREY+CjwveDp4bXBtZXRhPgr+HjgzAABAAElEQVR4AeydBWAURxfHHzFCIJCgIWhwKO7FSnEvzlfBirsXKF5cC0VaaAsUqkCRUqBIsVKguHsIEJwgEZIQ/d5/LnO5HJFLCCEJ77Xh9nZnZ2Z/s3f7nzdv5tKEs5GYEBACQkAICAEhIASEgBAQAolCwCpRcpFMhIAQEAJCQAgIASEgBISAEFAERGDLjSAEhIAQEAJCQAgIASEgBBKRgAjsRIQpWQkBISAEhIAQEAJCQAgIARHYcg8IASEgBISAEBACQkAICIFEJCACOxFhSlZCQAgIASEgBISAEBACQkAEttwDQkAICAEhIASEgBAQAkIgEQmIwE5EmJKVEBACQkAICAEhIASEgBAQgS33gBAQAkJACAgBISAEhIAQSEQCIrATEaZkJQSEgBAQAkJACAgBISAERGDLPSAEhIAQEAJCQAgIASEgBBKRgAjsRIQpWQkBISAEhIAQEAJCQAgIARHYcg8IASEgBISAEBACQkAICIFEJCACOxFhSlZCQAgIASEgBISAEBACQsAmuSHwevKEvH186cWLIAoPD09u1Uv19UmTJg2lTWtHmTI6UtbMmVP99coFCgEhIASEgBAQAkIgsQmkYRGbLFRsUFAwed69S9ZW1uTs5ES2drZqO7EvWPKLnUBoWCgFc1s89fam0NAQyuPqSnbcFmJCQAgIASEgBISAEBAClhFINgLb/cZNSpcuHWV2cqZw/JcsZL9lEFNbKnZiUxr+7/HTJxQYGEgF8+dLbZco1yMEhIAQEAJCQAgIgddGIFnEYCMsxEp5rp0pjJW1iOvX1t4WZQz+aIfMzplVu6B9xISAEBACQkAICAEhIAQsI5AsBPYzbx+O+c0oMdeWtVmSpUL0UEZHR0L7iAkBISAEhIAQEAJCQAhYRiBZCGzEX9vZSpyvZU2WtKns7OwI7SMmBISAEBACQkAICAEhYBmBZCGw4Sm1sra2rMaSKkkJWHO7JJN5sEl63VKYEBACQkAICAEhIAQSSiBZCOyEVl7OEwJCQAgIASEgBISAEBACyY2ACOzk1iJSHyEgBISAEBACQkAICIEUTcB6ItubvoJHXo/V2teJUQ/P23doweJv6fdNW8iHf7CmZIliUbL9Y8t2WrxsBR09fooKuOVTkyujJJA3LxF49uwZZc+a5aX9CdmxbNcT2nrSl3JltqXMGaxpxd6n1O3rO5Q3qy0VzpnWoix3nPajn/99RqFh4eSW3S7ac8zLiTZRCtt5+e4L+nrHE7p2P4jKu6V7pdo/9A6hH/95Rr8d8iZPr2CVX1IwS4oyXglMMjzZ2z+Umky/SX8c86W2VTORFS+jGZcl5r1yh3+fYPv2nZQndy7+Eaqon1Hcj/gc5s4ic2jiapO35fi/l/3ppwPP6N3CDrwKlQU36yuCie3+fMWs4zw9JDSUtu/YRTt27KRDh/+jqlUqq3Ni2h9nhkmc4I/Nf9KYcRMod65clCdPniQuPebi3kS9goKCaP2GTWRvb88rqDnHXLl4HEl1HuzFS5eT1+MnVLZ0Sdq1Zz+dPHPOiAPbm7dup6JFCpK/vz/9um6j8VhSbzx4+JBGjxlLFy5cSOqi32h5czZ70ew/vOjSnReqHj/sfaYE47r/LF+pZP0RH5XH5uO+MV6LeTkxJkxBB87eClTXPX+r1yvVOiQ0nMp8do1G/Hiflu58oh6GyDApmCVFGa8E5w2ffPx6AK3e/4yOXAsw1uS85ws65h5AO8/40QPuGFliiXWvoKw/Nm+hYSNGkm00E9FH/nSf1nInLTYLDSNad9iHznkGxpZMjqUSAmN+eUDTNzwi3INJYbHdn3GVDyG8ddtf6g8CK742ctTn1KtPP5o5ey7NnTffeHpM+40JksnGxk2b6cjRY7Tz793JpEaGaryJep07f0F9zz1kbZZYluoE9uMnT6lcmVLUomlDxcjT846R1WMW3rAObVpSkcKFSL83JkjCjcuXLtNm7j0e/u9IEpaa/Ipa3N2VutVxpkntsie/yqXSGl2+F0TPA1n1sO2Z4Ea7x7ul0itNeZeFEZ1+39+lpTzSo+3dIg40rk12WtA1J7k62+jdSfb635EjVLFiBfVDYAkpNDAojD79+jat2PM0IafLOSmMwNc9XOkrvlfL5n+1UTZLL/tV7s/AgADq3XeA+vP1jdlhE1Nddu/Zpw5NnzqZbrhfNiaLab8xQTLZGPP5KBo0oB/17tkjmdTIUI03Ua/jx0+owkuXLpVoLJL+2zrRqh59RvXer8me63/o4OEj6oFQrWolY0J4tREiMnr8FLUPad+U1apVk3b/vZOyZkmc0Is3dR0xlYsfq8EvQsZl7+ROS192zhljMkvziTGDiAOW5GNJmrjKwXFL8rEkjSVlxZYmpjJuPzYsu5gtow1VKJDwh2BM+cdWpzd1zJK6xpUmruO4NkvSxJcBPkcjWmSN8bSElGnpOfDw7d69l/r36xNj+a/7gKV1jase0eUT3b648sHxhJ5nnndi5WOa7+vI0zT/uLaL50pL+EsKi8/9idWw0ljyUDKreEznBQcHs5PusUrdqGF9Docx+Ctj2m+WbZxvYyrX/ERL05mfh/cFC7jRsKGDoztk8T5LyrckjWmBiVEv0/ws2f7vyFEqU7o0pXdwsCS5RWlSnQe7Q9tW9G4Vg6geP3oYC9jMRhDYnjl5rHoPcY20ltradevog1atadv27dS+w4dU+d3qNJuHhe7ff0B9+w9Q7z/+pBNdvHTJmKXn7ds0ePBQqlX7fapbv4EKCfHxMYRCXLlyhXr07EV79+5X6cdPnMRDTX1p/foN1Kz5B6qsn37+lUJCLBsSNhb6hjfWHfamRtNuUJZuFylnr0v0waybdPNRzOtoj/75ARUfclWFKuiqn/QIoP/N91TnI59aE66r4XF9PLrXXsvuqHxazLzJv0IZmeKJX6iqA/LJ3fsSoTxzQ9hC9XHXKVOXCyqPQSvuEeJetZUYelXt18IU+zGMj3oP5LTadp/zU/mgrMyfXqQ6X3jQ6ZtRh0k3HvUx8ik44IryVj59HlmWzsvS1+XsFUQ9ynLIx+0nBs4/c/xj+ZHX1PVk736R6k32MIbkDF55j2Peb6vsH/mEqHOH/BB5DablggHYI/8v1hmGzRCi8PFXnoql5jX594dKcJieG9f2Y26XjgtvE+oHDsNX36fAYJOG4wy+2vaYKo5yVyxxDUc5TAJ1wZ//C4MHPq5yLOGNckoNv6p44R7B9T32jWyTxGhXXB/qjZCcnnyv4rpxj7SZe4t0+9ee6EE/HzCEW2zgMCikR2jFHW5XbOM+1JaQdvB4GET4fKBstB3ukTVxhHdcuWIos2L58rrol14RAjL21wfGa2r/pSchBhyG63hnmCGPFRwOhrbGNVliMzc9Mt7HuPa5f0YNjXrGn5u+391VeYIlvne2nIj0QmKuBspDSJn+fCMfhOHsvfBc8QQH7NvG80K04V4H7z85BA2vGTtfUHl78T2xePtj472PPE2/2yBsp2801BnnVPnc/aU6o45dl9xWoV75+11W7fDuGHe6cNvAS9chpteE1g3fDS1n3zK2EcpErLQ2ne/hq/7quwT1x2fv278jRx3wfQCeS7Y/IXyP4D7CHz7Hpt+NaDekg+lzwK3LYsPnHW2Fe8T0O/ZFSDgNW3VPnYeym824SX+d8lXv0Y4xWVz3591792ggP4PLVaxK+QoUobbtP6Sdu/5W2e3Zu4/atPvQmHX7Dz+hLt0iPbl/bd+h0uM8nN+zdz+6cfOmSr+dY66btWhtPPejT7rQxx27cDx29PuNCePYgBD9YdWP9L+PO6n6duA6rfhhFX+/Rn43du7anZo0b6livnv37a/SoX5Lvl4aJd2Bfw+yZ74/lShZlpp/0MaYHuee53AI2MJFS1Rev7PugH25YKF6v37DRpo8dbq6bpyPEDFTD78l9bQkjb4WdOLBPq9bYUK7JLRe/v4BNGvOPKrboLGq+6TJU2nHzl3qmj4fO15dY3T/hLIj4eDBQ1StWtXoDid4X6rzYIOEFtX61ZSO5+276m2WeHqOnz3zJnf36zR9+gxq1rQpoef8w+rVtHnLn1S2bBlq3qwp/fbbGhrBN+KfmzdRWFgY9eHYrIdeXvTxh/+jx/xz4xDPwRznNWf2LAp88ULl5/fc8MV+m8X4Ee5B3bp5i96v/R5t37mTps+YoXqYVatWMb2EZLuNWMxu3xhCcuxt06gwhD3nn1Ol0dfo1OzC0Q5v3/QKUgLi7lNDRwIP5oZTbxjFlo11Gjp1I1AJkd8G56HG5Rxfuv7POJb4l3+9Kb29FS381DXKJLDBLB4RcwzzCQhXD0gMsw9obBg5gPDBxDsYzoeYwTD9kWv+tGdiAcJ16IeHqQB8yOIUaa8/MMTt4cGEBxisVF57gnhF3GzN8dfp8oIilNPJRj38Oy0yiFtM8ISwglA/wQ98XZbKwMJ/ICbwoIOBTW6eOIq6o4MAQxnoYCCetxqLgesLi5Afh4YE8cNM2zN+aPoGvCxWkQYT6xBHWTa/PY1smY0ns5ESDcgT7YL8wQAx9cHM+Iv2OXS2cb6OWH3P2MaBwSGqDR48C6HVA3KrczF5DqJNG66h6fTI+8K0E6XTmL+CT1y8IQamrn+kTq1YMB1d5LkBiO0/eeM6XZhXmBKrXSFuwWo0x6fq+xGFIq76Gxbdo5mvT0Co8RjSoG2CQgzthXO1JaQdcO9WYMGEfDHBOGM6K3Wt3fnzirZsXTmjzj7K64kTJ9X7cuXKRtlv+mYV38M27KppXSWTugYIU4jYU7MKUUEXO2r/biZ1jfmz2VLT8o5UmPfFZWO47Rdyxwee0J71MtOus340ae1Desr33pT/5VD3cHPuLKADW69UBsrHeUPMf7jAkzaPzEfvlUjPdQlTn0NcY4PSGagij9bg89GMz3vBPBqXzUBN+PsEndQO3KH3/LooZXKwpvt8H4J3D+4IteNJpfeeBtN2FnkQzPjMdqzppMQhhDs6SMdmFFSXM/qX+0p84vPfq35m2nPuuapzYFA4jWmdTaWBIMe9/Bfn979qmeikRyCdYIfCcP48bB2dPy4sCaob7pca/PkHj3ZVM5I1TzyEI6Qxi/2LXxZW94O+ZnzmKxdKR3VLpqeNR32V6HVOb82TazPyvUOK59jfHlBa/l5sz/W/x9/bm4750FmOr/9vWkFKa5OGMIEa338wfc643x5yOTbU6T1n9T0I8fzd7qc0rJlhZOZT7nTgc4fvmtZVMqrPxUdf3Vb3K+odk8V2fyKmul79xuT3/DmVLPkOFS1aRIkoxBz/sOI75bzCBH5tTzi8NFOmTOotJtn1HzhEbRdwc6PrHh4EwX3gwL905PAB/vG1IDI99+GjR2T4Ubbo9+sy4npdsHAxzftygUpWvFgxJYoxefIp123okEFq/5mz55TnvFv3XurasBOe9Bmz5tB7PDL+zjsl6PSZM/TRJ51VevyD9xDr2sAEdufuPTp37jxhoQkYdAjejx030Zg39q9dt14x7Nq5E96SJfW0JI2+lv4DBxvLA9uE1AuaCx2BLVu3qTpmSJ+evl++knXZWpW3Y4YMan90/1xzd1dpKnEoXGJaqhTYGtDA4WMogGOszC1dunRqEqT5fkvejxs7hurXq0eenrepcdNm5Jbfjb6ab5jc4OvrR1u3biV/LtOKh6JGDB9GuXPnpoIFC6isPT09aT9/QGOzZcu+4dn6ualDhw7UtHkL7s3tobgE9tq169QHILp827VtTe3atY3uUKLv6/WtofPSo64zzemYk56zl7EGC0yI0JX8YPu8leEhE1vBIyI8mXiw7p3oRrb88B/EIhJCdDZ7ms0FNjwjECgQwns4lhgPWlPDl/qBLwqoL/pWc24qsb6FvVUQ2BBTWlyv6Jub2vAXO1boqMwP0vPsUULMaJ8GmU2zi3H794hJmnhg/8piFzbq5/t0leOdMaETAhueK9iMj1yob8PMqgNScbShrJ94RQ/Eoltq8OZCTMC+753LyAVCrlbx9Pwgc1LCBp5eeMogsOC1+47T/nUqo/IgIUTEnUW3uYWxtwR5Q1wXYjG0jR/8eHCi81Myjz2LECta1jOX6pBogQqvZHwENutG2sftCzHy5ZbHBC84HtSYCFcitz1BYMHAE9fnyx0DjAjozo55naN7bwnv3w4aPMZzO+Uk3LfobPT+9o7iBS9xYrcrhOjxGYUoRybu5HFHCJ1S/EFgn5hZiPovv0ur9j2jdixKcd0wtKmpXbsf/3bYe95PiRUI6/PcccDiDlhFBqL0rol4Ny0H20eOHqXCPF/F2dnJ/JDxPUT7Xu6Mlua2hP3A9R/A1/E1fy4/49CWCW2zq8/o+++kp8kd4u6EQdxCXEPo7RzrpkLN0KGC13UJd7wm8nwNeN4hrifwthZpYFiSveV92KuNzpG2D6tnosXdXNVbrHaCe61rbWcV046dRXLaqRGUEyx2UUdtOEd3POB5Psge3x+5A9iioqEz4h/kqbys8L56saCEZ7dGMQejUEad60zyIHxG+vHn3YmFKgy8jk0vSAVyGDoa8OZCcGJeBDr5llh86oZOyYfVnah+6fRUp6RBZNTnDkdn9ijDAfIJdxi0mbIay3H/pZjn4JV3lcDWafB6cHIB4wpOGAGEBxwjZ+AanWV1tKYjLMDT2Vnxs8FFjU6u4c8e2g7fjxDXjco60pohhu9OMHqPR3TimigZ2/15jGNqISTz5s1Df25ar0I4tm7bTn/v3k0PHz6iDu3b0rvsvCpRqpyq8q7tW0g73iDwWjRvRh+0aMbP+7oUGBhI79aorYQs8oVDrWGD+lSo6DuGc3dspSyZDc+KmPZHx8V0H7zjWlxv37aZILDdr3tQ8xataP5Xi1gTtKNcrob7GOdVqlSRln69iJ7zgg09evWlY8eOq8mKENhz5ho0Ca7vu2Vfq5UxZrNn95tl35kWGeN2Wl5JY9fObWo1DUzghFDdsmUbQWBbUk+EycTnWrCCyZJFCyh//nwE98+eiJF98wrGVq+TJ08ZxfW3S5dQg/r1lBOzRcs25tm89P64diSwszQxLVUL7Ly8rFSRwgbvgik0xGVH5902TRPTdokSJdShrFkNPe/ixYsak+bM6aK2g4ODePm/TNzjK0k72RP9y2+/kQ97wI9yzzk2y5zZWYlrpMmXLy85cA8MH/S4TAto9DJNLSnFNUQAvhRh8DBx/4Iy8MNiy6h85M4CG4LCEjvKni8YHsT4MobN+tiFOrC3BCLP1PAg12VuH5OfikUT9zegURbllcJ5eJCcunHf6HX+j73OMDzoIK5hEJRdazupodFDV/wtFtguLKBhWIIQXvGGZTLQuNbZjQ/MW7wUnvaAZ8torTxISA/BA58/yoLAxkMaD1tTK8rXNfsTw72F/fCCNZ1+A5sEYQgxpk2LXCy9d+CSP2EYXZdr6gXV6aN7RUcJD3t4Nv/mTot+6Bd1TUt/cnsiv4u3AwlhHjqUAgIDBu82hoLNbVL77FTOZGnBQdzB0e8RX4xOErxeGK2wt7UytuvSnq6qfNQBE6daz7llzDq2srI42hivOzbeaDd0qiatfcB1D6Ha7Plc1T8Pe/kMxSRWu+pKo6300pIQ9BDXKB9izNIVzSxpB12eftWfP3gDP+LOEzySEFmm4kqnNX3958BBat60iemul7bh+dfiGgc7c+cOYUcYwYnJ8Nn7k0cYTM2GAUAww/sNG9Eim/oewTbYwEOq7WjEKiv9GmbRuyg7f8eALzrjEL3a9Gcb70vlTat2N2LvtTZ0GmH6Xtb74W3Xho4gBDaYaSvNeeGz6sdMdZ2HNDU8F5AGdR7YJIv6PMBLrcUtnABaXCMd6oJ8TvK9D4GOMBPzEKgG/H1Ss1ik+I9P3XAPT/8ohxplQigKvPAId4HBA21qurOCffBcf1TDSX02dRgT9mM0QN/DeI/OAwQ22jsmgY366u9znFOHOzJ6FSg4C2ADGkc6M/Dd05+/uxH6F5vFdn9myWLI79YtT/p8zHiqX78uO6sqU5PGDWPLUh3r06uHen3w4CGdOn2G/Pz8jPHWEOevw86yZ1rbXX7u4w+mvc3wLJsK7C6dOyrhjGXlmjVprAQ2NAZCM/SEvRHDhpCjo+E+HjF8qMUCu327NuSaM6cqv02rlkpgw/MPL7El9TRdkcWSaxk6ZKDREakKjeGf2Op14eIldVbNGtVV5wdvChUqqOaPwLsfmx05coyXbXYzdrBiSxufY5apnvjkmIzSDh/cN9FrY5XGMg8DVihp1aYNYdipXp06lIvXmYzLolsGK65z9HFzkZ2U4hp1wFJiMAgh0y9SDEfjzxKDqNOrW5g+gJAnvLLmpsU19tuaiW+d1tU5suw8EWv1YsgUpr0j5kPWhVwMD+Ez8Vhmqg8PCWO4Hw9heMW1ZxweoUXsCdNloVwdRoNtbecjljBDaAo8zaZ2K2JSouk+LZpN92EbQv0TjonUQ7Tmxy15r9sAae34QacNYSMQThAwMZk/rxhhXn+kxRC0qRXnya2mVtTVTtUZ3iw82GEYlcCQvTbziVOxlaVDjnBubLwXdHFV8bXghVAR/KHcie1yqFGGxGpXfQ2mnwWE9GjjZyLPCtbvYn+1pB3Mc0BnBoJl0V+PVScQHUEYxPFPA/OoERbzc25yuBqGnitWLG9+KMr7YtzxMjeIuot3As13G98j/nfBVsOwtHEnb0BgY/QIZv65VDsj/kFIAr4X0Famhg4yDJ0WbenTRn5n60luCHHQpjtT+r1+Ne/QY78dhiAizNrks6HrXDDCK63T6PcQtlpgY+TI1ODdhYUr3x2pkCvT7zYcw0ieqcCOT93wfYfRNMT/x2X5zX5XQP82AUavCkd8Lxbhz6qp4fsebYERwZgMnR9TM2Vw92mwOqQ7gTpdXCvmxHV/Fi1ShD5jUYmY3J9//U39IW94NmdOnxKrmIKIHDxsBF29ek1X57W/mpbVtVvPl8q7ds3dKBxxMFuEkw/bOXIYVuEKZQEMj7YW5dmzG/YjDfRFThcXunf/Pt7GajlMzsuWLXLkGeLdknq+4BBYbZZci2nHQZ8X3Wts9UK8PczVNWeUU10iHJ9Rdpq92bf/H2rcqIHZ3ld/G/Wuf/X8kkUOWAcbhteEeqpf9UKOHDuqxPWsWTOoSaNGKrvjJ07QufPnXzXrGM/XIhsJTLdjPCERD2hBDHGGhwM8ENrwBQ9vDrzasZl+YEI8wtuqH5Y4Bx4+GPIxNZyDMuHZRMyng8nD1DRddNu6zqZiDOn0ZEH9cNTnmk7KMRWhOI5y//o8v3qwY1LOH8d9lNhGbHgRFiCNefhT2wEeXtUWGsEK3n7YsOZZ1Y+J6ON4deZYZ3PDUDfCJTAxCF4vLT5bc0wo6oa41C7siYegQ5wovL3xMbQf2rE3e7N1XDRGDCCuIWo+b5VdiTM8eE0nSeLB+TMLNnODkDM1ePRNzTOiE5Evm50xzAf3ATyRWkzoNPq82Mp65BN5vbHxLszhAQiTQaw1hssxzI0RAgiSd4ukU172xGhXXefEeLWkHaIrZ9qHOWg431/wlhruUV/ldcSk1+jif4+fPKmyqVDeMIQeXZ7YZ96W2IcRjar8QyMx2VAODcBfdKaF9Y1HQVE8vaZp8d0Aj6n5d82dJ4aOXH7+4aqLEULd9LzXta2/K/Ddob9XUJYOaTL1+MZVhyfLi8eVJF7H1//nrcQ1vO+D2KNehH/QC6FQFUa9LB4Rb27aCfR8bOio4HOpDaNjpoY2wHdOfK7R9Hy9nB/i0VE3baZrwet9pq+W3J9Y/aZTx4/p34OH6dChw7Tu9/Vq0hvipRGSEJN179lHCdG2bVpTyw+aU7ZsWalP34EqFjumc151P8JJYQjJWrpkkTG70DDMebGhzBEhKMYDMWwg9lgL6fMXLqoQGSSF590ScR1DtsbdltRTTyR91WsxFmrBRpHChVWqExwqgkmL1taG5+bpU2diPfs2/zghHAmVKlaMNV1CDkZ2xxNydjI857d1G+jQf0dVzb6YPleJ7DdRTd273PzHZtrDa2VOmTb9tYprfY0Q1kktrlE2wjO0qF6266mujlrBw7nrBZ7cFXevGSeVzmcYrjX1biEe04ln+1fmeGVT+x97h4/ysDHKhYcU6wfHxyoXMggAeJdP8/AsDJMAEQ8NqxIhECDiYXqFAog+THAyte93P6VxPPnn3rNg5fmEKNPDyYhBN+WDYVkMqeMP4h7x6XqYFEPRzSo4RvmrXjSqUIF38MzsQsaHEToXEKOYXKSF/ywOKUGsKLz2sU0SMr0Gvb28Ty5a1c/wZY+4aMTqwo66G0Jqar+TgQY3zaKEvamnEGkghs3rj/emHiukgydVd1gg9vRqDOXd7AkhENpm8nA5DB5eDEObWmxlWcIbHb/xax6odoM3GTG8Z+cUNnpFrz8MpsRqV9N6x7YNTyXM3cQDa57eknYwPwcroeD+xAREDPuv5PadyqFcMA++zugMMZ2ISY1r9O0gj5qYdlJRFu5HvQRkxOplfH9GdnqiK0/v0+et5FVHTA3x6Vi5A51tTFiEIYZcWwCPnuA97jX9mdXHXver/mVV/d2hy0OHDaavSe9Pytf/IsJp0N4YCcT3xz+Xoo6S6fr8FLGKDd5jpARzK9ChxhwSbZigaRoyor8L8dlNiFXizje+wzEhHZ5+fNZRP4TKxGZx3Z84/vU3y+gfnvcE7+QXk8bTpInjVZZ6NRArq0jnhQ7JePr0mVGIDh08kGrVrEEuOVxYoEb9/omtbgk5homYMIx6Z8yYUYU3IMQB8cGbWEfcf2DZMxR5vPdeTbwQVs7Y9hdPzsSKIv0GqH2v+o8l9bQkzavWw/z8cuXKqF3wsI+bMEmFzHz3/Qq1Cot5WtP3JyIcCeVjmchtmj4+25GfmviclYzTYg3ssmVKqh+TwXrXBw8fNf7ozKtUW3tf9RCjfm8aMpImYowXr+XKlqVPPv6QfvzpF/UBf/fdqlSbVwfZy0vQRGfobdnZRnoJkMY+rR1PzDBz2UZ3cjLYh2rCOzaDvxTh/Vu9/yl5s5dEe3Biis0zrzom1mApMawagOWzMmFSVoQnynzCIYZ+4cmFIMRqEZiQ1qCMN0/oiYxJNs/f9D0eitVYvCKs432eQIcZ7BjmhEjFChmIJYVVYSEO0YDJPL/yxBwfXt3BXLRiNRR0ChZzDDUmRkFUIGQEBqELPiM/yKpCENrNu6UedJhMiDhpGDzOlhqGt/FAWj88r1pSC97+/ty5wARGxHSjbljWDtcGryw8TPExxEBDFHfhCUsQ/1iKEAzgkfyVPfLwgKKNUA5iSxNi8Ki79b+iYvN1bHgZ7lzBm4Uhe8SjQ9yCOVZ5QEwqRJulZglvlPP32ecqfAee+VbcbhC2upx6pdKrZdaSql1xbZjohesGV7U0HU8IM59bkJB2wMoRutMKQQQPMH7OGtac2zo6O8heP6xKEJfh/qrLn5/+jTIrz+g8Xk4PokxP2kUIAT6nmFyMFWcQE23q5TXPH55Q1AlLLGKial3+bODzB7GH2HG0LWKtZ27yIswXgChz5Q7Sqn1PVZjRIl5JKKkNPNGhxogV7tIaRdOrOiPOGN8HELVvyqrwZNFlu4j68ncEQp4u8agT2iE6m8ITQBEuhRExdKzx/a1XQNHp8f2I9u7Fq7tgIvB8/t7D906HaobvS53O0ld816JD/xEvj1mVJ7Jqw32OkaWYLK7704qfqdNnzlant+Y4Ysxr+vXXNeo9JiLCHBzSUWWeLIj4Yqyy0Zjjs+fOnqm8vojd/qRTV7XIwJ49e41hF+rE1/BP0SKFqSnHUmMVjIZNmvPkyjp0/bqHqhu80p07fWJxqWP5B2QQV4zVT/BLkzAdYwxv7auYJfV0cnJKtGuxtK758+WjGdMm06jPxyndBe0Fq1btXbV6TEz5HDt2QjkScH8ktr25T31iX0lEfll4ouBtXopv89Ydak+ePLkSpaTu3boR/rRhYsG5M6f0W/U6eNAAwp+2USNH8tI6QyiI45EyREw00MdKlyoV5fxvl36jDxlf9/MKIinJsEpIMHs9sBSWFsX48oS3THsl8aCH6Q6K4V1k6Idhkllu+pyXM8OX+21Oi4f1aM5bP7AhjGARWVHLShnVZC08EODFrskhE+blIL0uU5+P140j8ql1oSGG9aQsCO2VvKqIjglcxhPtGky9oSZHok4QC215+S4IP12HMTyhEcOuGL7XawvDi4ZheUx4hI38wMAHy1Ptv2jwICHNXBZR5qujqBPM/tGdO31teXkYHKt54FfyUCZE8e/D8hpDQuCtRNnwNmG41dgB1CDM8tf56sOY7b+HV5+Ad7n13Jt0gle/QGcEZSHOGnVHm0/jn0W21HQZiLWFkNQdMKwY8cugyMmFWIUGEzQ3HfNV4S24B/CDRKbhKHGVaQnvdcwLIg7XhfrAMET+A9+ziP9OrHbV94lmqwrSN796Y/gHHS0INdyPYIOwGHOB3amWU5ztYH6vYNk6TBLFkpYQq7vPkeqk4TM1le9Rc/Pi5UXxcO7ZM/I7zzyNfo+JkhhB0mvMYxIfRC4+J9qwkghWFsEKHlhNIzaBjXOwqk/PpXfUqJFeyQVCdUl3w/c54vR3jcvPbXfHuNY0PNeYYI0VdGCatWah9qkjUf/RxyPTRz0e43kRyfR5P/P92/3rO7SROzDoiOKeRUdgKf+yoanpe0Hvw4pTMP351Puje9VlmR6L5jaKcPUYGGD5RHxe0Yns5n5H1QufbUzGNs/vG65r/+WGpU11JwmfI1PDEoT4rYIRfC/B0LnAijc6llzzxDGdv3kd9X6kgeG76zSPym076cejIcEcr56elwK0UksJGlJE/deS+xMeycUL59P4iZMJ6zrDIFTxy4X9+vY2Zggv9edjJ6j7/QBP6oUhRKMXryGNzwD+sOKIt7ePWqpPX59+RXpLtpEuNoOTbf682WqpQKyn/SsvLwfDr6hOnTzxpZjx6Mq0jhguggd886bf6SCHxZw+c5Y98DmodasPqFHTFiocQjvu9KtuD/1jOWlMblLTclAfS+uZ0GtBGQmpF877iJdExpKiaEfEodeo/i7du3dfCew0EWyQztT2/3OAataoZror0bbTcNC65W6hRCs2akbnL10ht/z5o+5M4DtPjqdZvvoXvomeUvWqFeP1YzIJLDLVn+Zx4wa9U6xIvK4Tng0M4eulqeJ1ckRihBD48xqypsOTCcnH0nMQW+jibKMmFEV3Dryu8G7GNvkGnyY8IPBw0A+c6PICHzx0zCf/RJc2IfvghXKImHyUkPNjOwdDx1hBxIUnLukv5tjSx3YMKzc4pE0TZWKsaXqEcdznsBtMVjV4vS+rw3eXFlOr1JimjW07Lt7wwkLMZo8hvCCp2xXlYW1xuxgm7+JaE9oOYB4QHKbWTY+JGWIou/XoTTt56TJMFrPE9Brr6FRHZ2F8TQE8EoH5CpbeN+Bwj8U7PMAmz/wo2YMDRlNi+7xFOeE1v0Gd7/PnO6m+tyy9HNxPCCNzcbI1rpKjz8UP9sBB4fNDCRWCgw4T6m/aTrhv3PpfVs4OhFPpEC/Ticg6v/i84r6Zsv6hCplD+JI2/CATOipHeUlD7aDRx+J7f3p7e9OLF0GUPXvUzoLOD6/4bQt8J+vYXezD71+k5ZFkLO2bULtz9y4d5rWs4zI3NzfSYQqQZVjBBEIZXvb4Gry3CJWoXLmi8iTjfMQmt2zdTmV19tQx45rf8c3bNL0l9bQkjWmeCd2+c+cOLft2OVnbWKtOFNY0x6onn/bopX6Ntm+fXjTqs+FRsn/y9CmVLV+Zpk35QkUcRDmYCG9SnQc7Dy/NN2F0VIiJwEmyiCcB7f2N52lRkuOLO1PU8OMoxxP7TR72CMdmMQkH03PwQDKdJGR6zHQ7MfiY5me+bR7zbH78Vd5D9CWWeMgSsYJCTPXBKIMlPGM6X++PizdCbmKbpJXU7YryYhPXuK6EtoOBefQiWPNC/Cq8fYUKFtS74nzVE3VjSgiBHN/YaHCIrUOLssAhuYhr1Ad1TqzPB/JLLEN8vyWfJbRTXMxRp1cV1vq6cN/s41A2LFGK0QqM2OxnjzvWOUeoirm4xnnxvT/1D8joMqN7tYmYFGd6zMnJsnBD03PMt/GriUOGfWa++6X3HT/5yCiw4TV2cXl5ZOmlk2LYgXXr8QuQ+INoR7gMmMEwcdMSHjFkHWW3JfW0JE2UTBP4xoVXSMFqIBhx2LDxDypTphSdPn1WeeyRJdY1N7dTJ0+rXeXjmMhtfp6l71OdwLb0wiWdEBACKYsAOyaMsawxeTNT1hUl39r6+vnxZOk2Ubx5ybe2UrNXJYBwM4R6xGb4/CHs53XEk+/gHxTC3J3d/OuXmDeC+mCd+KkfukRbpZR0fyL2efDA/tFeh+nO0qVLmb59pW3Ecq/8/lta+u13xnWrEYvcsEE96tzR8ljuV6pEEp+MkYdNG9bS3HkLCGEfu3fvVXHnmEcyaGA/csuf/6UaPXj0UIXgFOH499dhqS5E5HVAetvzTEiIyNvOTK5fCAgBISAEhIAQeHsJREwXe7MAMISAdQvFkh+BkBCOFcaYp5gQEAJCQAgIASEgBISARQSShcC2tbUh05/WtKjmkihJCKBd0D5iQkAICAEhIASEgBAQApYRSBYC2zFDevL2ifzBAMuqLqmSgoCPry+hfcSEgBAQAkJACAgBISAELCOQLAR2FmdnDhEJoSdPDT9xblnVJdXrJoD2QLugfcSEgBAQAkJACAgBISAELCOQLCY5oqp+fs/pHv8UKdYQdeK1H+0dHPiHEGJfSsqyS5RU8SGAmOvAgAB6xiMKarmp7Nkpg3iw44NQ0goBISAEhIAQEAJvOYFkI7CxGDnifZ88e8a/wONPwcEhLLZZbYslKQFMaETMdYb0DpSZf+7Uzs5OJjkmaQtIYUJACAgBISAEhEBKJ5BsBLYGGRwcrH59B7/AI/ZmCODnUvFnaxv7D6+8mdpJqUJACAgBISAEhIAQSN4Ekp3ATt64pHZCQAgIASEgBISAEBACQiB2AslikmPsVZSjQkAICAEhIASEgBAQAkIg5RAQgZ1y2kpqKgSEgBAQAkJACAgBIZACCIjATgGNJFUUAkJACAgBISAEhIAQSDkERGCnnLaSmgoBISAEhIAQEAJCQAikAAIisFNAI0kVhYAQEAJCQAgIASEgBFIOARHYKaetpKZCQAgIASEgBISAEBACKYCACOwU0EhSRSEgBISAEBACQkAICIGUQ0AEdsppK6mpEBACQkAICAEhIASEQAogIAI7BTSSVFEICAEhIASEgBAQAkIg5RAQgZ1y2kpqKgSEgBAQAkJACAgBIZACCIjATgGNJFUUAkJACAgBISAEhIAQSDkERGCnnLaSmgoBISAEhIAQEAJCQAikAAIisFNAI0kVhYAQEAJCQAgIASEgBFIOARHYKaetpKZCQAgIASEgBISAEBACKYCATXKq4/OAALp15xEFBAVRaEhYcqqa1EUICAEhIASEgBAQAkJACFhEIE04m0UpX3OiR0+8yfPeI7K3t6PMGR0po2P611yiZC8EhIAQEAJCQAgIASEgBBKfQLLwYD/3DyDPu4/IIZ095c2VPfGvUnIUAkJACAgBISAEhIAQEAJJRCBZxGDfZHFtn85OxHUSNboUIwSEgBAQAkJACAgBIfD6CCQLgR34IoicMzm+vquUnIWAEBACQkAICAEhIASEQBIRSBYCOzQ0jDJlkJjrJGpzKUYICAEhIASEgBAQAkLgNRJIFgL7NV6fZC0EhIAQEAJCQAgIASEgBJKUgAjsJMUthQkBISAEhIAQEAJCQAikdgIisFN7C8v1CQEhIASEgBAQAkJACCQpARHYSYpbChMCQkAICAEhIASEgBBI7QREYKf2FpbrEwJCQAgIASEgBISAEEhSAiKwkxS3FCYEhIAQEAJCQAgIASGQ2gmIwE7tLSzXJwSEgBAQAkJACAgBIZCkBERgJyluKUwICAEhIASEgBAQAkIgtRMQgZ3aW1iuTwgIASEgBISAEBACQiBJCYjATlLcUpgQEAJCQAgIASEgBIRAaidgkxov0O/ZI7pz+Qjd8zhPvk8fUFiwP2VydqKMTlnIMXNOypg9P2XKWYLsMzinxsuXaxICQkAICAEhIASEgBB4gwRSlcB+7u1Fl49tJ48LxyltmmCys7Mj5wzpycbOSSEODw4jnwd36NqF03T5ygJq17EX2WQtQjlc87zBJpCihYAQEAJCQAgIASEgBFITgVQjsG9fPkYn9m2g0JAQCrOyJrJOQ6FprNlLnZGCg0Pp5s07dOLUObpy7QY9fuJNhQrlocpXz9CsPr2px9CJ1LTNx6mpXeVahIAQEAJCQAgIASEgBN4QgVQhsD3OHaAzh7ZTaHgaCmNRHR5mTQHBQeR1/xH9ue0fcve4Tf7+L8iKjxGnsbZKSwULF2Kh/YwCg4Jp3hejyMf7GX34ab831AxSrBAQAkJACAgBISAEhEBqIZDiBfada6fpwrF9lMbansKIvdfhRC/CgigkMIR27DlMD+4/VqEiYWRNLK1ZZKPprKhA4SLked+LXgSFUJo0VvTtVzPJyTkLNW71v9TStnIdQkAICAEhIASEgBAQAm+AQIpeRcTf9xmdOrSDQ0Fs1F9YuC1LbCv1FxhsRY+ePFcebY4aIWIRzf+TtY0V2dqkoWLFi5PHrdusta1ZlIezyE5Ds9mTffuWxxtoBilSCAgBISAEhIAQEAJCILUQSNEC2/3cYfZasxM+jS1HfrDItrLiMBFrCg2zonte3vQ8gOW2tR1Z2bD3Ok04hXPq0LBgypYtI9naOdC9B494Xxr2fttQSCi2wumnZQuStG3PnD1L3377HV29ejXB5W7fsUPl4efrq/JYvmIF/frrbwnOLz4nfvPNUureoycFBAQkednxqWdySvvw4SP6/ff1tH79BouqtXnzn3Tt6rUY096+fYfWrF0b4/GEHjh06DCtWPkD3bh5M6FZvJXnXb58mX766ZfXfu1Hjx2j4yeOx7ucG4+Cyf1BcLzPMz3hztMQunI3iL9PTfcS7dmzl3D9YkJACAiBt51AihXY/n7edOv6ZRbWVsY/CrdibzRPbuS/+w+eKK91QGAQi78XFMgx2YEvAlhIB1FBt9z0PDCQPdzP2IONc8LZs23NkyFDaOefG+jOrRtJdl+cPHmK5s77ki5dSvhDaePGTSoPnwiBPWvWHILwTQrbsXMXHTjwL3l5PVbFJWXZSXF9iV1GcHAwtW/fgRYuXETu7u4WZT99xkyCmIrJLl2+ROPHT6Rwvo8Ty9AB6PppN/r333/J29s7UbLdt3c/jxy9E+Xvg5ato3QGK1SsHOW4afp27VJG+NbmP7fQ5ClT6LmfX6Jwiy6TBw8eUu/efck+rX2Uw/n7u9Ohq4bObrOZt2nOn/w9GGH/XQugwoOvU9WxN6n6+Jtq+7hHoD4c5bXDgrvk0usadV5yL8p+pC853IMqjLpBtSbdoiJDrtPfZ/2NaQICA6j/gIHGDrfxgGwIASEgBN4yAik2BvvhbRYnLK5D04RREHtR2AHNsddh7IMmCuNAbP9HT8g2JJQXE+E9YSFkny4tBbx4weltKWfB4nQf8dfPX5AdVhsJDeGwEWuO1eYQEz53/64tMuHRwg/C6tU/sJB4TtmzZ7PwjLc72fXr17nz94D+2LSBihQpkmxh7N+/nxo1bEjz589L9DpuWL+OHB0zko+PN/21fQdNnPQF5XTJSe/VrkUbN6znDq/BLTrys1Hk4uJCQ4YOVnXAspspwYYOGUx9evWk9BkyvLbqLl68hKpWrULvvPOOsQzPxyHsSAincvntubNFdOrmCxraNLM67v8ijNrMu0ttqzjSlPZZ6QV/YXZdcp/azL1D7l8V5Infxmzom13P6N/LAeScnieFm5iXbyg1nXGb6pVyoFkfZ6d0dmlowdan9PGiu7RzbB4qlSetumcWfrWIfv1tDXXt0tnkbNkUAkJACLxdBEy+VlPWhT+8e0t57MJCeWEQfpqE8kPZyorDREJDKYSDru95PeLQD2sK4QeNU+bM5JorJ4VyEEgIT3IsWLQoXb/uwQKdxTUL6jQILeGMglhoI5zkzIkj8YYRFBRETZu3oCFDhinvce3adWjp0mWqbgjXaN2mnfLMwWO3+sefXsr/ydOn1K//AIIH76OPO9LpM2dUmqfPnqp8IUK0XbhwQe377rvv9a4YX8O40wHvJur2x+bNFFM9Y8yAD+zevUfVCXVDPsuWfas445xp06ZT127dyNfXJ0oWW7dto8aNmxI4TJ02jVdxMXjVoiSKeHPy5EkaMGCQunZwWrNmTZRkGzZspE8+6aSOg5GpN3fSF5OV937M2HHqOLyc192v03ffL6dq1Wuqv0UsRrQhr0+7dadVq35UdUP9dv39N/3zzwFVX1wj2tC0vidOnDC2Deqxdt06nR3p/H755Veq36ChqsOUKVN5pIRvTDMD/66fdld7e/bsTcOGjVDbuF/nfTlfsUWdR38+hu7dv292duTb/fv/oc5dP1Vl9enbjzuLDyIP8hbKXrDgK3U9qNP06TOMHkWEmmAfPNRoS1yPuaENtu/YyeJ3u0qL9oHF1g6aA+5JXMPiJV+bZ2t8nyd3bsqdOxeVKFGCevfqpfbfvHVLvebJk5vy5c2r/hzSO1DGTJmM73Oy2I7OcB3gr5kMGjSYEIYDjvqeRRtrQ8hLrz591DGwmDlrtrG99HUgLAfHcC24x54/f65PV9zAT9+znTp3UaEROsHWbX9RL/YuwzRvfB5wb6I+KBv10+Z+zZ0GDx6qjoE9PP0o++LFizpJlFeMgmzZupWaNm2i9j/yCaWWc+5Qpc9vqPf/Y+9ziWEefE3hNOl3L/qSRfBdDuloVi49jW2dhTKks6IsGaypS+2MSpDf98YkFYOd93xBE9d60eyPs5Fbdlu9W73uOmtg8FWXHOTqbKME+MR2WdWxxX89Va9WVlbUvEVzAj8xISAEhMDbTCDFCmyfJ08omMUxPNehrKJZU7CwDlbbLwKD6dlzfxbTHP7Brpkg9mvf57Wvw21tydYhPTnnyEnuN25wfDZPiGRxE8Li2trWhtKlS0dB/PByvxb/cA0Iezwot/31F81ncZMtW3bKmDEj4cEKcQwB2qZNa3r06BFNnTqNEFphahBBjznMwpG9XhB0n7IQU50FXsMb+d6+zRMyIwzDsNiHvOIyCDfE51YoX4GaN2um8oyunjHlg9jwvv360907d7hOXckxfQYlBtesMcT8enp6qrqEmgRjwkM7dOhwypIlC/nyMPnq1T8pBtGVAbHTvUcvXs3lBX3xxUSqXKkijZ8wSQkIpAc/CKWSJd+hyZMnqSw6duxsjEm+z0IUMezp7O2Z62Ty8/Oldh3+R1u3buOOxVhq2qQxLVq02BirijCagwcP0d59eznfUVS8RHHq338gjRw1mnr27EFDhwxRbbh69WpVlofHDerBYjiEO18ov0yZ0jRu3ATVWUECnR/CAgYPHkStWn5AP/70Mx0/9nJsbLmy5ahbt09VvgMG9OdOiyHkYSp3UtBpade2LY38bDghLh/D/8/9I4fe1Un8D9qjZ6/eZG+fVvGChxeC3tTmzJ5Dq1b/yOL5E+rRozutYzE4YaKhgwbOnp63aRrfb61btaJe7Gk1t8GDBirxW6NGdfp89GjKlz9fnO1gymHQwAFU5/3a5tka3wfx5xQi0YM7uUuWGDo/tWu/Zzwe3w3czxDB9erWVfzQOWjcpKkqY/r0aZQje3bVxi94BAsdzj7M9onXU9WeHdq3pxUrVnLM9M+qWH0dXy1cqNj14XXy//hjM40dO95YLZSHDp2zs7PKw9HRkdDR0YLY18eHrntwB55N854yZRp9+GEH6sX32LGjx42dNHwv9O7blzz4+2gC36/NmzWlocOHqzYK5DC26OzipUtK8BcvVlwdDuIvwQoF0hqTYhsjcTB4m+FZLuRiR9/0cKGsjpFe6a0nnlN6eytydYocyOy/4oFK/2H1jMb89IYtj/bBXkTqceUpxz7TmO4SPIEcTgCMUIgJASEgBN5WApHfrCmMwHN/XiGER5LxHIGXOjgUHkMbXjUkjG7duUcv2FsdxqLPmj0qrvny0e1798jf24/y53GjRz6BdIsnhgVBWPOqIvYsvIP44WvHkx1tWbh4+3Bs9ivY+t/XKoGCLE6dPk2zZ82k6jWqUWbnzATvIwTScY6pbVC/nrGUpk2a0Ny5s5UAaNiosXrA3mZR65DOwZgmvhvw6sGjiKF+iE2slGJqpvWE4EFnQxvS2rNoPXv2nNrVunUr6te3D3Xp1JEOHDxIOXLk0Emjff3qqwXq+ry8vKhhoyYsUv6gsWNGcacjU5T08BiiU7Fg/peqgwMOmXnEQcd0r1j+A7Vs2ZJGjRqpzoOI+uCDVrRx0yYaPnyY2leqZCkWQGPUNjol8AzPnjmDChYqSA0bNFAjBlcuX1WdDF34Ag59QJhC6dKllfdx8KAB1KpVS3X48OHDLJYuqW2UkzmzM301fz6lTZuWmjRuzPeHD61cuYpaNG+us6OFX81XHQrU/99/D3Kee6hKlcrG49iAd7Zy5YpqX82aNVVYDTyjaKfp06Yay69QoSLVq9+Ajh05psImTDPZxGIP+Sz48kvVPijP65EX7dxl6LBBlK/8YZW6l3AMli1rNiUAwV/bLOZTt24d/TbKa61aNemnX36mXK656P0IoWxJOyCTFSu+U/d5lAzN3lSrVjPKHrQjPNqvYuhIdPzkY5XFBW47eFBnzphO1jyKlYfzbtW6Lf/Y1E0qULAge6xnUP58eY334slTp+jkiZPUme9tbXPmzKYyfG/AnNiLPuKzkXyPfa7aGPsQzoIOIax+vXrUokVLWr9hA41hcRmdTZo0QaXDsYcPH6oOCz5Ph/87oj7ru3fvItecOdWpmbi8z8eMjS4bte/pY4O32MXF8BnMxd7kca2z0j8XA+iTmhmpU61M9MQvjB6wZxr7o7MNR33pz5N+NLdjdgzkKVtzyIcu3gmifRPyRncKVStq+C4a8eMD+r53TrLhNU+nbfRSae89i/zucHU1XMdjrqf55z3ajGWnEBACQiAVEkixAht6OoQnNYaEh3J4B6//gT+e3BgYEESP2DuFcJBgFti2aazJrVAxypTVhTz+2kFZcvAExxe8ogg/VOzS2lEAezxZY5O9gz0Fccx2OC/zB5GWUHPLn98orpFH2TJlyNfHl5YvX6mGhf+OGKo2905Wr15NFYkh1ooVK6qHLiaXJVRgw4sMrx5s+vSpZMNCw9TM69mrdx/l2TVNc+nieSpXtqzateTrb2j7zp1Us3p1atCgvrou07Tm23XrvK92Zc2alerXr08bN27kSX3XqVy5clGSnj9/nmrUrKHEtT4ATzIMgv/subPUsZNBOGEf4nCrvltVeXnxHgYvtDanTE5q0zWXq3pFRwGCFCMT2ly4cwBxDcMoAyxPnkhRkSVrFnrA/GCoX5UqVZS4Vjv4n2rV3qV1634neERh6BDAW6+tbLmydOfOXf021ter166p45UqVTKmg9hEnS9cuviSwIZnEPVB50dbzVo1jAJbr0azZu06wiogsEccLgW7fOUq30/p1LYpM7Ujln8sbQdwRScyLlv69dcc+uGownDOnTtHc+bMVSwhOBNqRTnsSxsEKt5DXMOcuX1g6ETicwC+W7f+Re7X3XkCpy/9/fdu1RlTiSL+KV2qlPEteMOuXXM3tnPNGpGdBFvuoOPze/78ReM55hvFihYz7ipVqqQa5cCOy5cuq7bW4hr7dHnYjs6eeRsENkbcYIivDmYv9plbL6hAdjvyCQilfRf8qUXFDGo7Y7qon/1j1wOpz3cPqF1VR/q4vdO9JwAALxFJREFUhuH+Rx6jf/VS4ryoq110xVJOJ2ua/Uk2GvHjI8rXz51ZGpR52Xz2ajRRn+QY8ZnyFg+2RiKvQkAIvIUEUqzAtrXPQEH+fsqLDWEdxGI6jCf4WLEX2tPzLgUE8nAw74NY9vMPYqF2iQUbP2Q5CPsxr49duGhhyprZiRwd7Cg8+AU/4AM5PjmE/J4H0GPvyHjL+N4T6RyiepwRnoAYYIgwCLMCbgWUaDTPFw9pbfCUmhuGtrVhEmd8bDWHC2jRqs8zr2f58uWjiFw7W8ND1q2AG23auJ7WsmDbt3+/8o7CQwqPcpfOnXR2UV7Tp09vFDc4oCenBQVFilx9AmLCbWyivw0h7EzP1+fYMaugF0H6LcfeGx70xh1xbNjyZFZLDfXT9dfn6LbSYTHpOVbY1LSwM90X0zbyh5mXYcf3QHDEMdNzcd26fL3f1ibyejSXwuypzRwh+nOyZxRe7KxZsrKoNdzb6MhZapa2g6VcK1QoRxk4rAIGYYqOyvLlK9QIiaV1Mk+nvbDm+83fP3v2jJo1+0DtbtSoIRXk+xuG0CdtuH9NR3ts7Qz3p+5QIZ0dh5SZGu7h4Gjub53GlA3mfGgDhydPDIJZ70OYU2xmE/FdgbknqGfdKZ7k8dDw2Wr75R3jqd/sfEb4u72koFEMI13beXeoauF0NL+zwQOOE77dzcuaBoaRk4MVLd5uGMG75RVMXr4htGj7U+pT31lNhOxYMxPVLOagVg7Bx6hRmQxqpZEiOSJFeQivxgSzjeFzrQ7KP0JACAiBVE4g6lMiBV2sI3sqn3E8rQoPgeBkb3ZoeAgLr2B6qpYVS8NCxI7ysCdz3/4DHHLwhB9GNnTvnhc9e+KrJkX6cyyzjRWvjh0UwBMeIc6tKJsLx05njRQsr4oEnk7Yzh1/ER7cmGyFmF9LLR2HrMBOnz6jwkcgjK6yJ9IS2759G7XmoXHEYVfmcAV402Oy/v36RnvoLofWQNwPGTpEhWEg/KFb9x4qLjUmgY2wB4TGoDysj33o0EGVd8GCBV4qA57CPfv2qUlm2suOtXRRJkIY4Ik8xUsZIswFBlFx4sQpKlu29Et5vY4dWKUBMduojxalaAuMADg4GDyIr1JukcKF1elnOe5ah2xg5AJxvkUHDHgp6+IlitERDh0xrc/JU6eN6QoXKaS233//fSVe8SaEO5kP2SOfLVs2unLlijGtpRvwlr/OdnjAIRMwLRgtrVdC0h07fpwF7RPa/fdOcnU1jHL8d+RIlE4e7l/MDcjPoWWwc2fPq9dChQ1s8ebY8ZO83GJ7tR/1Ps7v4zMqoE7kf0rw6AvKw5wMHTIW3SRonR6vepQAQhwjMWsH56KV+7zV6h8I77h6L4i6fH2Pdo7JQ5kcrI3i+rFfKDXhVUAwefGXgTmjrBwCDzjisb/fGxk3DcFNrPUxSbJ7HSe68TCElu97Rn0bOFO3OplUlbCm9gmPQGpRIbKDomOvnZycTast20JACAiBt4pAihXY2XPloZu3bqoYbIgNeHXhrX7IQhoPPDs7XpaPvXV+vn4srK3JJYcL3XvoxZMgw1SoRnrHDBTKQ8YQgHBG2bM7hiUUZcjoSHmyG0RPYtwJrrlyqWXZvmSRi7CFxYu/jle28HBh6B0hH1159YtSLPiwQkZchnOwGsO0aVNo0KAhNJj/Nm/eyEIifp2H/fv2qwmKlStXov/9rwOdYXEJK1s2ZrGO49269VAT/k6fPqvCXXA+wkXMrWGjBup6MFGvQ/t2aj1wTGocP26sSoq46Bm8DnQBFuelSpZUwh5hI6NGjzDP6rW8b9iwgZoEN3PmLI79bqFisxHXPnzY0EQpz8nJScU5jxs/QXmmHfm+xAocGPHQ8dqmBTVATPnqn2j6jBnMtyWdPHk6yqorzixqEB88hmN4J0/+gmPls6sfi0Gs+3+HDR0d0/ws3U7Mdjj033+UKWMmnvjry52FI2pFk7Zt20TxGltar/im0/fgli1b1aRIdHjRgULcuamNGD6S466HKa/0uHHjCSM8pquYYE5B8eLFqCp3XP/8c4salRoasZygaT5xbVficDDE8g8cOIgqVqhAjx8/VisZxXYePtswjxs3CR3U3FlsyNs/jJqzyC2Yw5aOXw+gHJmsqVTeyJGwAF7LtMWs2/T0eSiNb5OFdp+PnEBbqWA6Gt4ss/ozLbfRtNuUg8NCfuhriKl2zWxNP/3jQwd5Cb9FXXPQQ169ZNwaL1VWl9oGwY3z3XkpSliWLHGHC6mE8o8QEAJCIBUSSLECO3e+QnTwn/3qZ9FDQ3nIlcNEwjjU48FdT+LfcmTPNv/GI/8k+hOOseSpjmp9bFe3glSr7vvkeecWBbEX28nJgWxs2XOT3o7y5s7JgjyIvB74UfXWDeLd1KZDyqYnj+GVKvr1G6BiLuHB/oQnYi1dusyYhH9HUm2bDhvrvPSw96xZM9Uktf8O/8fetHNq5QfkodNpzyrvMOarNzDJr307XvqOVxKZPGU6fcGTreJjEFYeHh70w6rVLIaOqlMbN2pEgwZG9a7quiABBAAEk14erwqv1zt39qxoiy1VshQvKTef5nMHRP/6JDzj7Vlsw7D9lJcwnD//K+V5hOcYk0axKgrMeO3qXeQ/pvXBXiPnCN6RKQ1b5uR0vvDCYy3oBVw+GKANu/NKIHo1EJ2vaX5WvHpNTGZeL6Sbw9eDSW2Y/ApDmd9/t4wglrXp8yDIJk2cQAu+WqiENnhgRRL8cI22ubNm8QopY3n1k15qF+K5f1i5ghCbfIcnzlpi5tcQVztExyGmcrC8nTZMRO32aVfuBEY/qhPf8B+db3SvYIhOGq4FP+6EP3T8MBnUj8PNtIHXe+/VpE6duqhdSDNn9mzj5w07+/Tuxauz/E7oeKEzNGbM5/Quzw2A6bYy31YHcdzkHkRarE7TuHEjXunmhFoPvEbN6tSwYWOd/KXX/G751Wfs/LnzSmAjwYkbgfRRNUM8Nda/ruAWGaOP46d5n17pY8gqw4gB9sOW9XSJ4oE27H3533R2VvTrIFde9/qeCktBCnjDV/XLyRPFIz9BGI3BCjSm8wRezk32CAEhIARSN4E07O2NX0Dva+Bx9MwVeqdI/njn/Pdfm+nS5Ss8OdEQa/0iwJ/279lFnrymbqCKU07DYR/25M8THyFg6/HSXW5ubvwgO0rOVgGU3y0XP6gceYKjNdlaWfNENsReOlG7jgmfbBXTRWDY1IHjPHUYREzpYtqPZoJ3y4mXBktoHjHlbcl+jA4gVtTZ2SnKcHps5yK+OIQnjloaSgFG6ZlRdDHMuH4safYmVyVA/TAkbyqgYrv++B5DrDPi1C3hBR4+vJoJRHNMhkl9AfyZSExmyaEdYrre+OzHvRnIIWLmbNCJ+vHHHzmka7uKDQ9hhuY/GINfl8SKPxDmWKce3njdIYtPHZAWI1OrucxmvDxf8YgVSPAz6/glyEOHDkTpZJnmPZuXYjzLE0RX/bDSdHeSbOOJcZ1juR3SWqmJj6aF4nuiZq3avGTlQNWxNz0m20JACAiBt4lAivVgo5HKV6lOJ0+dUT+VDjGBdWO9WITCOHrQ4NXm8JFweHY5/trFNQ/lyJ2H2hcrSg+unKJr7pfp7MULLBjD1FJeLtldqGPXTjgz0c38QR7fAiDq9PB2fM9NjPQQvdmyvRziEVvemLjH/1tssTHC9cd23OJCXiHh6y4fE+VimvBpXm3wiE1cIz0mQ9raxizAzfO05H1yaAdL6hlXGsO9GfvNicnG0U04Ns3bdJTBdL+l29k5Lh4x9PjlQ3jK8RPoWCkGXvbY8sYISv0GjdTa21qYW1rmq6bD1ylCUaIzLBeZiVcRQfiSmBAQAkLgbSaQogW2My8J1oDXWN64cYNa0s2Pf9TkOf/ADLvl2cvIS/jxxJ0g/mENOzsHsrNPx0O5WdTM9oxOmSl31epUk9dUtrYK4R/08KZbHAZR8p3KlJPX/hUTAkLg7SSAHzpydoq9UzJh/DgqUbxEogCC53vVqpW0i4UpfvWxAsdhj/xsxEtrqJsXhrCUJYsX8ahOZGiLeZo38R4d8Xnz5qjO3ZsoX8oUAkJACCQXAik6RERDXLf2N1q0cCE5Z8pIl86f5QjHcArkCYvBvOxeWDiHf9ilo1z53ajZBy0pJ086zOTkSJnsbXipLQ4L4bjCNLyCSL7c+dhDa1hVQOcrr0JACAgBISAEhIAQEAJCIL4EUrQHW19s23Yd+MdZKtHF82foyoWzFMrxld4cX5k+gxMdOniELl3zoGz8a3zWPPHRzjqcX0N4NRGeFMk/lBAeZstrU7vxjPf4hT/osuVVCAgBISAEhIAQEAJCQAiYEkgVAhsXlN+tAK9rm4tK8tJZnh7XeFlsXraPRXT50mXo0VMfevDwMcdi8y84BgfyaiNWFMbHc/CvO+bL50b20fywiykk2RYCQkAICAEhIASEgBAQApYSSDUCGxeMX7/LU7AYT2TMTz5P7tOTRw95BZFgjru2I1eXnOrHZfAraDl5Sb5crrkT/DPklsKVdEJACAgBISAEhIAQEAJvH4FUJbB189mltaesOfOrP71PXoWAEBACQkAICAEhIASEQFIQiPkXMZKidClDCAgBISAEhIAQEAJCQAikMgIisFNZg8rlCAEhIASEgBAQAkJACLxZAiKw3yx/KV0ICAEhIASEgBAQAkIglREQgZ3KGlQuRwgIASEgBISAEBACQuDNEhCB/Wb5S+lCQAgIASEgBISAEBACqYyACOxU1qByOUJACAgBISAEhIAQEAJvloAI7DfLX0oXAkJACAgBISAEhIAQSGUERGCnsgaVyxECQkAICAEhIASEgBB4swREYL9Z/lK6EBACQkAICAEhIASEQCojIAI7lTWoXI4QEAJCQAgIASEgBITAmyUgAvvN8pfShYAQEAJCQAgIASEgBFIZARHYqaxB5XKEgBAQAkJACAgBISAE3iwBEdhvlr+ULgSEgBAQAkJACAgBIZDKCNgkh+uxtbWh81duJIeqSB2EgBAQAkJACAgBISAEhMArEUgWAjs4OIQqlS7yShciJwsBISAEhIAQEAJCQAgIgeRAQEJEkkMrSB2EgBAQAkJACAgBISAEUg0BEdippinlQoSAEBACQkAICAEhIASSAwER2MmhFaQOQkAICAEhIASEgBAQAqmGgAjsVNOUciFCQAgIASEgBISAEBACyYGACOzk0ApSByEgBISAEBACQkAICIFUQ0AEdqppSrkQISAEhIAQEAJCQAgIgeRAQAR2cmgFqYMQEAJCQAgIASEgBIRAqiEgAjvVNKVciBAQAkJACAgBISAEhEByICACOzm0gtRBCAgBISAEhIAQEAJCINUQEIGdappSLkQICAEhIASEgBAQAkIgORAQgZ0cWkHqIASEgBAQAkJACAgBIZBqCIjATjVNKRciBISAEBACQkAICAEhkBwIiMBODq0gdRACQkAICAEhIASEgBBINQREYKeappQLEQJCQAgIASEgBISAEEgOBERgJ4dWkDoIASEgBISAEBACQkAIpBoCIrBTTVPKhQgBISAEhIAQEAJCQAgkBwIisJNDK0gdhIAQEAJCQAgIASEgBFINARHYqaYp5UKEgBAQAkJACAgBISAEkgMBEdjJoRWkDkJACAgBISAEhIAQEAKphoAI7FTTlHIhQkAICAEhIASEgBAQAsmBQKoV2EEh4XTtftBLjC/deUFh4S/tlh1CQAgIASEgBISAEBACQiBRCKRagd1k+g0qP/IabTjiYwQ1c9Mjqvy5Ow1ccde4TzaEgBAQAkJACAgBISAEhEBiEki1Ats5vbXilD5t5CU6ORj2ZYp4TUyQkpcQEAJCQAgIASEgBISAEACBNOFsbxrF0TNXqFLpIoleDd+AMHJMFymwUYC3fyiJwE501JKhEBACQkAICAEhIASEQASBqOozlWExF9e4PBHXqayR5XKEgBAQAkJACAgBIZDMCKRqgZ3MWEt1hIAQEAJCQAgIASEgBN4CAiKw34JGlksUAkJACAgBISAEhIAQSDoCIrCTjrWUJASEgBAQAkJACAgBIfAWEBCB/RY0slyiEBACQkAICAEhIASEQNIREIGddKylJCEgBISAEBACQkAICIG3gIAI7LegkeUShYAQEAJCQAgIASEgBJKOgAjspGMtJQkBISAEhIAQEAJCQAi8BQREYL8FjSyXKASEgBAQAkJACAgBIZB0BERgJx1rKUkICAEhIASEgBAQAkLgLSAgAvstaGS5RCEgBISAEBACQkAICIGkI2CTdEXFXtLZKzdjTyBHhYAQEAJCQAgIASEgBIRACiCQbAR2qSL5UgAuqaIQEAJCQAgIASEgBISAEIidgISIxM5HjgoBISAEhIAQEAJCQAgIgXgREIEdL1ySWAgIASEgBISAEBACQkAIxE5ABHbsfOSoEBACQkAICAEhIASEgBCIFwER2PHCJYmFgBAQAkJACAgBISAEhEDsBERgx85HjgoBISAEhIAQEAJCQAgIgXgREIEdL1ySWAgIASEgBISAEBACQkAIxE5ABHbsfOSoEBACQkAICAEhIASEgBCIFwER2PHCJYmFgBAQAkJACAgBISAEhEDsBERgx85HjgoBISAEhIAQEAJCQAgIgXgREIEdL1ySWAgIASEgBISAEBACQkAIxE4g2fxUeuzVtPzo/n8P0+pffyd//4AYT2rzQRNq3aJJjMflgBAQAkJACAgBISAEhIAQSCiBVCewV//yO+XLm5uKFy38EpP1f2wlh3Tp6PdNW+mR1xPq9eknL6WRHUJACAgBISAEhIAQEAJC4FUIpLoQEf+AACWu4aU2/wOoRvXfp5rVqhA83UuX//gq7JL9uTt3/U27d+99LfUMDw+n75evpGvX3F9L/pKpEBACQkAIvHkC7h43acPmbXT85Jk4K/Pc3582b9tJPj6+Mabd+88hunLteozHE3Lg8ZOntHXHbtrGf2KWE8Bz/PdNW+jGTU/LT0pAysDAQHVfBL54Ea+zA4LC6KRHAD0PDIvXeaaJg0LC6fTNQHriF2q6m3DP/LVzD4HB67JU58G2BFTvbh1VMojsrFkyKyFuyXkpLc2XCxaSvb091alTO9Gr/uTpU5o0eSoNHTKIBg/sn+j5S4ZCQAgIASHwZglcv3GLxk+ZTZmdnahZ4/pxVuaZtw/9um4TvVO8KGXM6Bht+t/W/0E1361MRQoViPZ4fHcGh4TQZ2OnqNMqVSgb39NjTP9xt6jPNWsrKypUyI16de1IObJnVYIR1xqTDerTjSpXLBfT4WSx38fXj9b/sY18fZ9Tl3x5XludVv60lu7df0DNTe6hC7dfUNUx7vR0RQlVbrbuF2nb6HxUpbADBYeGU+9v79LaQ97GOn1YPRMt7uZKNtZpjPuw4RsQRqWGX1UCem6nnNSjrrM6HsJ59F9+j34+8MyYvnkFR1rWMxelt7eiTBkz0qatOygsLIyaNKxrTJOYG2+VwEZ4yMXLV/mG2krZs2UhB4d0ahue7tRoG9b99touK0vmzHT+zAlKnz79aytDMhYCQkAICIE3R+DMuQsEYTl/1hfq9c3VJOaSb3neIXhGJ4/7jArkzxtzwngeyZAhPblkz0ZwyIWFhdNNz9v0w89racqs+bRwzhR6v1Z1KlempMr18hV3Wr76VxoxqA9lzZpZ7YPzLrlbJu4ELVs4S4XOvq66Qlj/c/A/mjB6aJQijlzzp+K50vJ9RXT6RiBBEJfOZ6/STFv/iDYf86GdY/NT+QLpaNcZP+ow31Md79cwS5R8Oi66TQ5prV7yUI/6+QGtYYH+44DcVK9UBjp7K1Dl0Wnxbfp9WF6ysbGm9q2a0YrVv1Hd2jUpbVq7KPkmxpu3SmBDSG/jIYHfN11NDHYv5VG3QWPq0qkjbdn2F505fYZq1apBkyaMp1lz5tK2bdspp2tO+mz4UGrYwOAJ8LhxQ3mBj/x3lDLzh7FRwwY0auQI7qFZ09p162njpj+obZvWNPfL+fT8uT81adyQRo/6jDJEiFqU17N7N/p79x46cOBfKlWqJPXo/inVq1tH1W3GrDl806SlUZ8NpytXrtKnPXrRyBHDaNm3y8nd3Z0qV6lEM6dNpRw5sqv0V69eo3nzv6J9+/ZTfrf8NHzIYBo/6QtaumQRvfOOoZdpetEdPuqovNcN6tfjIUEfdS279+xTSVDXz0ePpPQODur9sWPH6Ztl39HBg4eoRIni1KZNK/qwQ3t1zJK6mZYr20JACAiBN0Vg+9/7aNee/fTgwSP+7sxGnT5sS6XeKa6q4/X4Ca38cQ2du3iZ0qWzp3KlS1LXjh3I1sbwqO0zZDQ1qlebDh4+pjx6BQvkp/69utL3q36hc+cvUXoWdR+1a6nCGJFhfNOHhITSyp/W0PFTZyggIJBKFCtMnT9qrzyuyG/Bku+UU+T58+d08sx5JZpbNW/M3ul6OBzFFi5dTkePnaJQ9vD1HjiSwytr82hvUzp7/iKt27iFPNi7nT1bVnr/verUNAYPIITvtyt+4vqcVWW1adk0Shl4c55Zrd3wJ13nUJQ8uV2pZfNGVKm8wRP91669tPefg1SmZAkC9zq1qlGnj9oZ89i5ez/9tGaDej911gIq4JaPxowYSHFxANf679c0tMODh/T9krlkz89KU7OztaVc/MzO6ZJD7c7l6kJXr3nQjt37VFhBhvQO/Cw2PN+ePjV4SZEW3u2YTF9PpfJlaOt2QzhLl0/aU1o7O/qeBXoAL85QpHBBGj6wlxp9Rj5Hjp2kH39bT8+eeZOjoyN7geupUFccQ3uiIxAaGkoHDh5R90+t6lXow7YtcZh0eXVr16A1v28mePvLlX6HenT5WDkYkWbU+GnUvnVzdc9Zcn/Aa/8Pl+Xr60tVKpVXeuSR12MaPqg3snvJDhw6qgS8HrHYfc6PZv3hRQcv+6u0jabdMG63mnOLBjfJQulYME/90EV5s5GocTlHcnGyoaPXePGKhpFFLN35hJDfiZmFqPzIa5EHeGvdYW/6X7VM1KJiRrUfnvFBnPeENQ/pzpNgypXZlqqxBvruh1/o5OlzVLVy+SjnJ8abVBeDHRsUxF8v4J74T98vUn+JvZIIBOqYcRNYQNejsWNG0VYW1e/XbUDBwcE0d84scsmRg3r06ksv+EsHwxJdP+1Jj3my5cwZU+njD//Hwvd7+uGH1eoSIFj/YdEMcd23Ty8aOKAvbdiwiT4b+bnxElHeiJGjefjOWeWBD9+n3XvR+fMXVJr73HN89OiR2kaZt2550viJk6njJx9Rv769CcL+l9/WGMvr2r0nXb/uQVMmT6SWLZpT/4GD1TmIn4rOzp07T35+furQ5KnT6b8jR2nenJncqRir6rpw0RJ1zJ3z7NSlG/dQQ1Q9y5crSyNHjaH1Gw3Da3HVLbqyZZ8QEAJCIKkJIH54FXsx8+XJTZ2VMEpLM+Ytprv3Higv6qTp8+gqf9/9r00Lqsei5gB77iBatCE2ec36zSxMylE7FjWIRR4ycoIShD26fszD1o70zferKSgoSJ0S3/SLl62gPfv/ZSFanT5koe7BsbVfzPhSiW1k6MVxpzj+gvPv+L82lJ3F4C/rNhqP63ritf77tajkO8XIloUmOgkQvbdu36HZ879mQcfPL95XqKAb/cwCF0I3Ovtqyfd0+OgJJcAhrjdwOIJpfPade/dpJvODIT88w+Yv/o4Q9w3z83tOnrfvEkRa6xaNWQRVUPv1PwhFQYcFhvxbNDE4r+LigDpgsQPUv8vH7dU1qkzM/glhQQqxjnocPXFKzd2qyqIyTZo0Zikte6uv5+iJ09xRaEuuLNrR3ku+W0WtmjWiVnyNGGVH3WAPHnrRgq+/J9ecLtSt80fklj+PWiXt8lV3dRztuXvfv3TV3YM683WgQ/fntl30B4c+wHR5ENcfNG2o+CCWft6iZeo4/vHmsB5/7ozB4ro/Nv75lwqNKVOqBHX5pAPf9/dVh8PryRN1fnT/nD57gTs+kSMLdjZWVLlQOpUUIldvYwe23bLb0WctshpDPbD/2v0guv8shN4tYujQYJ+XbyiN/uUBDWuWlQq5vOx9trZKQ4HBUWO3z3kaYsCvPzR8vuC1dsqUiU6dPY8sE93eKg92otOLJkOI4a6dO6kj51jobtz4B305dzZZs1c6L38pN272Aff8b3AsVyGa/+Uc/sDko0zcwLDjJ07SseMnqNunXdR7/LNwwZdUrmwZ9d4pkxMNGjKMvpg4joehDL3kOnVq04zpU9RxeMDrN2xKa9b9TpOi8Tgj0fSpXyhPObYfcM99859blBf64KHDSkwf+ncf99pdcZicnJxo+Gej1HZc/5w4eYqqVK5E79d+TyUtX66c6kjgze/rNygPPTzh8Kg3b9aUnnl703ffr6DWLT8wZh1T3YwJZEMICAEh8AYJILwQog5eZ1iNqpVpEYvaO/fuqb8n7Mmc+cXnlDuX4Ts0IwtGeJR92RHhmCGDOqd2zXeNy8Reu36DTrJ3d9TQfmTFoRguPJo4cdpcun33vjHcwdL0CGc4cvyUEs5wJsFKs0AePmayEhDvRohTxEYjlAEisSx7MweOGEfHTp42es3VifxPsSKFlLcaXttqVSqq3fC04zt8/KjBZMdeV4RJ+LE3HIKufp1a+lT1CnF3mkNMPu7Qmpo0MIyqFuEY5glT5xrTbd+1l9JxqObYzwarIfv3arxLgz4brwR7wYi5Ukg8dcJnSggZT4zYcM2ZQ10DJlZW5vhrhGVgiV5LOFSvWkmFf5jnqd+jLf89fFT96X3wFsOL/6o2dsQg5XkuVqQwDR09Uc0D020GQep+46YqAqMgYz8bpLzaCNVBnT/tM4RF+DUqyp5uGDpAE0YPU950eKpxr23Z/jeL6QbqOP4ZOqCncWU1R8cMapQFXndnjq03t9juD4wiVGTve0/uDMJQn/7DxphnEeW9NzsLC/FIjbYaxRzYM52O5m95TFs55hqCeu0hH+W57lX/5bCawOBwajvvFmXLaENd3zfEVyOvkT/dp4zprGhUq2w66yivdUulZy+2D3Wv40/VijqQB4tqhJ3Abj8OMabNkSMr6xHDfuPORNoQgZ1IIHU2xYsV05tKoBYrXkyJa+xEGAgsOChYhYHkYcG9+c+tPOx0TfUid+zcRYULF1Jp9D9ly5TWm1Tt3apq+wp7rrXArv1e5JcaPmi1atags+xZjslKFDcMZeJ4mTKlaOUqg8f84sVLlDdvHqO4xnFdHrbjMgjlmbPncijKNapXrw41adTQeC1nz55TeeGLWVvNGtXp19/WGkU49sdUN32OvAoBISAE3hQBeDKx8oBpOAU8YMMG9FJV+n975wIdRXXG8S8SMAjII0Z5aRMicBRIKY8KiDwslUex1dpDKY/yEEWEYhUUC0gPaFHkKSCgtggilOqhCkIJiAfaoClEoGDLq0cEDG+SkIanAbbf/27u7iTZSTawCxvy/zjZmb1z586d3yy739z7/77BSDBkBta5RiEcWFksKn84KBj1g9XTQRVrt6qzc9ttsca5Rlm1qt7pbMx6Wgu2PkarYfY4WIdkAbFHcOStg52ox7cjsLE1qhsHDWlrgzG007BBonGubf3mTZuYKXY76m7L9x9MN6uQJFi7u15CPi335zoyDRnJjDnv2CoCxxaOuTUwxShjsBYsB+ugurULbjExN2s6374qCbkskP+sSv5MRo9/TaZOHCdgdyWG84GjDsP1h9XOk6Fgvap+BsAAhu1Z2o8Plq2Q4ydO6s3MWSPZwayvtXhNS2ylKihr3jRJtupNmzNjB26WrDXD777KmHB9AjnYbp8PtIeR/6ZN/NcTn398HsDGzXL0RqtSnpQGdRCUuOUb73NKqlcqJ8eyLxrJRv1aFUy2EAQgWkOCj56qvT54MldSX6knFaKjzCZkFkEAJPTVN+eV2X3scnKfmrJx91mBBCWmPEazPfLjpMryqeq5a1f3u7648QXbcJj/KOFovQy2GezMEe4eOz3UzRD6SbcuOlVVz6zbUQ68gdbafhHiffkK5bHI55RCJ+a06PLRxoF3ljnXbRsoi9I7YmuYmsss8J8k57R7qiW7n11CctKyZQtZtWq1LFmyVKZOmyETxo8zmnR88WK0w2m4GYBhqtGaW9/sdi5JgARI4HoRuHz5kjl0dLnAP5u5uRd9jrLtY3Se9hraV2vO73RbVtQy2PrWKbffrbZN85vgcNjLRZezm8wSI6PBGiQThdrPO0fIHp1m+2MZ2G036WxuQYOW2xpkDg3qe38PUYaR/ZKYPW6hfuK30cGhOK5wrqGtb3xvQ9/h72vRTJ74zfOSumlLvhstX4UgVkpyPtC7Q4KELC5NdDYCkp6du/fmO0pBvvY9dNkwXF/nuWI2Hfadg4UpyHtx+3xYX+OcpkJ2GlIjF2WIP4A8FIZ0e3We2u2rftfTe3zrj0zWm1ANckyZ4L/2zy48YjTWn4z6njSs7R+ggzQETvO+Y7lmJNw2snpbjhnV/qVqr6veUs5os1N2nZEdGuDYXIMlK+o+cLAbONq6pDfOlpltJ1TLwN8UoWqd7bgS2JyWJhkZGZK6cYPUqVPH1Ev956Z8FxpTb5CTJMTHm+07dnxllg10Wsna5rQt0kv12zDkc0zT94ECEm19t2Xjxo3MVN/q5LXStYt3aundBe+5VS9Ufvz4CcFo+w/VyX7ppdEy/JnnZMGCRcbBRvBlSsrnRnduv1y2/Wu76rISfIEWhRpkAQmQAAlEEAEMEsDRQVDegxrYB8N3LuQJGA3FNDgkD5C/2RFXq5UNZXYLNyQJeRk0dmtGi7atvbOlGHHEX2JCvNtuJSpHO19pMCbO2zptkCtgRBYpYZ2GkVXYnv/ukzgdpYdBU+x0cpv/IMno0BEoai1b+1vQWbfbglmGk0OWXluYR/9dC0MwIUa8Z05+2fDGYBU01k5DsClmV5AVA7ZbZ5Gxj00wgCDV9EOHfTMre/P02/E6Y10Sw283JDnJ+hnvpAGi+P+A/NnIoILgVDeDJAVpAGEIXkRA4oA56cYBntG/lsxdmyHvbjglmycmShWVfFibvuqkzF+fJe8Nqyvt7/WO+NttKq9WZUCUTFpxwhaZ5YadZ+Ss5s6Ggz1nTabEVIiSgSorwcg17PF5h0yav1oaMGktW4M1EfsQDvMfJRyts01XAnFxXt3Q8hUrTVaRNWs/NUGNVsNsdxz+zAgZM3qUCXpBYGCLFs31Q17Lbpa/fvSxNNKsHJBzLF/xiWzfsUNGvTDCtz3YFeinIfMYPGSocZJPalRwwTtZBDJ+vW+fLPiTfzoP7V/UO+XO3R6WJHWkx40dbQ757bfpYm8EunXtYgI4sf9jjz4i/9m5S+bOe1t+pxlTaCRAAiRQWgjAsUYGDTgUGNlct36jSUE2Yezz0li12XBsXp0yW/qqw3hWH7qCDBp33VnHOObhPkc4Ccii8ceFS4yzVUWdXmSfwEiuUzZyNf3AQ9qQcm3OOwuN5hqSkb9vTJXuXToVahbyg7q1a5n+lNfRY4wIL9R8yE5r37aV0Tgj0A8a7iNHj8vb8xdJB80WMrCvd+DIWT+Y9VBxOH/+gmZa+bf5gz8N6QkymsBser5g+nM1dXBDB2nGprRtEhcXK39RqUhBw/Zps9+Sn3XrrH08aIJYEaDqtNc1MBU8cy/mmgfs3aF6faQqLqnh6dfQ0D+pWWVqagYdBKC65Tu3bUMXj1SKMDjGCEjM0Ie+DHmohlnPOnNJerSumi9QEdppZPtAGj/ssyJPO11NJSXt7qmk2u14057z5dZ+O2VS75q+4MgzFy7Li0uOm/R/HRtVlmWbso2sZOYAv/+E/Q9rvEP9xARnUyFbp4MdMpTBN4Q7/+8nNZFBjw8QpNLDX+tW98lPH+6uo8infQ1BE/1gx/bSo2dvU4Y6M2dM840coHD4sKdl6QcfCpzX2NhYGa8BkG3vb2Pq2xEGvHGum40o03/WsB3ZTLp376apmbYYJ759+wekXQf/Fyec5v0a3Y3RBTsSjf2RVvCtubPluZEvSMdOnU2Tbdq0lt+PG2PWkTVk7pszZfKU6ebpj5C+DBn8hDylf7Di+mYq8YUESIAErjMBpLTLzs6Rj1euManlMP2OtHGJ6tjCxmhA2kzN+vDq1FnmPUa1EVBYUgv0nVhUG7Y+giWnvDFPZs2bb6pj5Bhp66y2+yYXDaNLsbbh/41Ag43uaSCD+vWSpcuWyxebvjTyAzjJPX/hD1Y3B857eXHEMJk0/U3DBEUIijynWalsfxEwOvDXPU1mFTjusBY6qt1HAyNh7v0ym711CvQRhcVx8O/tvmakD6p+AE8YrjWyfjw5oI+5cXDuGRXlH3l1lhdcD+Z8sI+9TngACjJcIGUiDMGmmC2w/FAGhtA5T5g0HW9NJpG+v3rMrOMFWvJmqpOf/MZcU4ZR6FHPDs3Xhq1sj2vf26XtNzT0COJN3bxVMNPQTz/76zakyCF1Ut0MsxSLly7z+Q14iEx6Rq60SPRmEtn6zXmTPs+5/+zkDPN216EL0mdWum9T3djysnOafwbftyHAynBNybf78AUZucjbNzygBqPZ/Tv4tfOQ6uIGBbr1sJhO9Vx327x9T8j60GvgUI+OMATVHuqh/vU0DVbwnDp1qlAXNMOG5/52HU25psnzaM7JQnXujL/bo6PWpjwjM9OjmqtCdYItOHzkiOcPE1/zaOo93y4LFi7y4BhoG6aOte8YKl8x2zQVoa8+VjS9oEc1WvnKnG9wrmiHRgIkQAKllQC+wzS9mWv38R2oGlfX7eHeoHrwIr+HQ3H8/+lvUrDf5ZrZw6MjwkUeVh02D/odSrsWHELZX7e29DkYHr0xKbR57MuvezTlnilXJ9ujEpJ8dTS/uGfQ0JGmDL4Gfrevxv625jPPkg8/8l13XNN+g3/r0RkN12YzM7OMn6W5pl3rhHNDzrlLnu0HznlyLxb2O1YmrzP911n4sHThhhvBxt2afVpjcXckqHe9n7YEHVPBAMCC/Ub2DWcGjoLb8R65sK/G7rj9dvlS0wS+v/jP0kpHyo8eOybIc41Rdts27prxt//AAek/wDv6/EBb72i5PTaCJYsym5KwqDrcRgIkQAKRTADfg0VNjRfUI1/rc4Ee12pyw3VsZ0B+ccdAurnizGbUKK5eSbZfCw4l6c+V1sVTp4szZyaRQHWD8TUC7ecsg+wHsqONX6Sprr6GeTgQgla75qVhdNa169gH6QORQ9tk1bEbrtGysmYlSbqr8OcPQaDqYEvvHo/my2wTym5FwW0PZYNX0lbajr3SMqnBlexaaJ9kfVIjntZYVNoYuxOccTzd0eaftOWRsMTDYvbs3Ss/V82ymy16f4lAipGo0zahMGip16xZa576GKNsIGMJlKoP+bP/kbLRpAS0T4EMxfHZBgmQAAmQAAmQQHAEINOBth2p9wIZHmQE7XjnH7UPtPmKyqCnRt70zKxsE4uAp1JCK16U4amiyevWG0cccQqRYPARUzdrNhiNH3BKbkLZtxvOwQ4lHLZFAiRAAiRAAiRAAiRAAiUlEJwyv6Stsj4JkAAJkAAJkAAJkAAJlFECdLDL6IXnaZMACZAACZAACZAACYSHAB3s8HBlqyRAAiRAAiRAAiRAAmWUAB3sMnrhedokQAIkQAIkQAIkQALhIRARDjYiOCMgmUl4CLNVEiABEiABEiABEiCBMkUgIhzsijEV5PTZ82UKPE+WBEiABEiABEiABEjgxiQQEQ52bLUqciIj+8YkzLMiARIgARIgARIgARIoUwQiwsGuGVdDzunz4I+eyCpT8HmyJEACJEACJEACJEACNx6BiHjQDLCev5ArXx88LBX1KT9xsVWl8i0xYXu6zo13GXlGJEACJEACJEACJEACkUIgYhxsC+ToiUzJOJUj585/x8BHC4VLEiABEiABEiABEiCBUkMg4hzsUkOOHSUBEiABEiABEiABEiCBAAQiQoMdoF8sIgESIAESIAESIAESIIFSSYAOdqm8bOw0CZAACZAACZAACZBApBKggx2pV4b9IgESIAESIAESIAESKJUE6GCXysvGTpMACZAACZAACZAACUQqgf8DQn2V5WdFQjwAAAAASUVORK5CYII=;imageBorder=default;" vertex="1" parent="1">
          <mxGeometry x="134.78" y="550" width="480.44" height="130" as="geometry" />
        </mxCell>
        <mxCell id="AyBuVYPxz2zy9ibKqEu_-12" style="edgeStyle=orthogonalEdgeStyle;rounded=0;orthogonalLoop=1;jettySize=auto;html=1;exitX=0.5;exitY=1;exitDx=0;exitDy=0;entryX=0.5;entryY=0;entryDx=0;entryDy=0;" edge="1" parent="1" source="AyBuVYPxz2zy9ibKqEu_-9" target="AyBuVYPxz2zy9ibKqEu_-8">
          <mxGeometry relative="1" as="geometry" />
        </mxCell>
        <mxCell id="AyBuVYPxz2zy9ibKqEu_-9" value="" style="shape=image;verticalLabelPosition=bottom;labelBackgroundColor=default;verticalAlign=top;aspect=fixed;imageAspect=0;image=data:image/png,iVBORw0KGgoAAAANSUhEUgAAAkwAAABUCAYAAABwfmgcAAABYWlDQ1BJQ0MgUHJvZmlsZQAAKJF1kTFLw1AUhU+0pSARO4g4OGRwUKgiqWI3aTsUoUOsCuqWpjEttOkjjZTi4iDuAXF0aQfFXRcHEX+AWHBQBDd/gJBBDfG+Vk2reOFyPw7vHg73AQOiylg5BKBi2lYuk5I2NrekyAtCCGOY5LCq1VhSUbLE+J795d5D4LM9w71K3tv0QmtXv7upR4/O2qd/3/fVUEGvaTQ/qGWNWTYgzBErdZtx3iMetSgU8SFno8snnPNdvuy8WculiW+Jo1pRLRA/E8fyPbrRw5XyjvaVgacXdXN9leYY9QRS0GFiBRIyyELGIhKgVP/szHd20qiCoQELJRgowqbtJCkMZXKTsEyOGmYRI5bJTUac3/r3DQOt2gISLjDoBFqebnBxAIw/BNrkMTCyD5xfM9VSfy4ruKHadlzusrhEX/nk+69TQMQBPMf335u+7zXJ/xG4anwCIrhlhMpguMYAAABWZVhJZk1NACoAAAAIAAGHaQAEAAAAAQAAABoAAAAAAAOShgAHAAAAEgAAAESgAgAEAAAAAQAAAkygAwAEAAAAAQAAAFQAAAAAQVNDSUkAAABTY3JlZW5zaG90KrLmqAAAAdVpVFh0WE1MOmNvbS5hZG9iZS54bXAAAAAAADx4OnhtcG1ldGEgeG1sbnM6eD0iYWRvYmU6bnM6bWV0YS8iIHg6eG1wdGs9IlhNUCBDb3JlIDYuMC4wIj4KICAgPHJkZjpSREYgeG1sbnM6cmRmPSJodHRwOi8vd3d3LnczLm9yZy8xOTk5LzAyLzIyLXJkZi1zeW50YXgtbnMjIj4KICAgICAgPHJkZjpEZXNjcmlwdGlvbiByZGY6YWJvdXQ9IiIKICAgICAgICAgICAgeG1sbnM6ZXhpZj0iaHR0cDovL25zLmFkb2JlLmNvbS9leGlmLzEuMC8iPgogICAgICAgICA8ZXhpZjpQaXhlbFlEaW1lbnNpb24+ODQ8L2V4aWY6UGl4ZWxZRGltZW5zaW9uPgogICAgICAgICA8ZXhpZjpQaXhlbFhEaW1lbnNpb24+NTg4PC9leGlmOlBpeGVsWERpbWVuc2lvbj4KICAgICAgICAgPGV4aWY6VXNlckNvbW1lbnQ+U2NyZWVuc2hvdDwvZXhpZjpVc2VyQ29tbWVudD4KICAgICAgPC9yZGY6RGVzY3JpcHRpb24+CiAgIDwvcmRmOlJERj4KPC94OnhtcG1ldGE+CjykZDcAACz5SURBVHgB7Z0HWBVXE4YHgl0RRbFFBcUCCjbEXsAee9fYe+8ao9HYu8YeS4z9t2I3do0ae4yKiZVYEbELdiPKf74De7m9wL0UnXmevbt7+nl37+7szDm7dpFCiIUJMAEmwASYABNgAkzAIAF7gzEcwQSYABNgAkyACTABJiAJsMLEJwITYAJMgAkwASbABEwQYIXJBCCOThgCERERCVMx18oEmAATYAJMQA+BeFOYPn36RIcOHabXb96omvHq1SvavWcfIc6a8ur1a9qydbtcjv5xzGDRf/11jkJCQgzGfy4Rz5+H0YGDh+jEyVM6XUpsDHbt3kvFfEpTnnwe9OTJE532cgATYAJMgAkwgYQgEG8K04cPH6h9py4Uej9U1c/7Yrtbj1708eNHVZg1Nv777z+6cuUKrd8YQHPmzjdY5ITJU+mIEYXKYEYDEai3b/+B9OjRYwMp4j/41OkzVKR4SdqwcROd+fOsTgOszUCnAgsDli5bTg3q16Vb/16lTJkyWZibkzMBJsAEmAATsA0BB9sUq1tq8uTJ6diRQ5Q9ezbdSCuHZMyQgYYPG0pr1q6jzVu2GSx9wbw5lCZtGoPxlkZA8du6bQcN6N9XZM1saXabpN+3/wC1b9uGxo75UW/51magtxILAp+HhZGXV2H66quvLMjFSZkAE2ACTIAJ2JaA1SxM/1uzjurWb0y53PJRjVp16cbNW6qWj584meo1aEK9+vSn0NAHqnBlY9KUaeRZuKjMF3jxohJscg0Xk1Jn+Ur+0uVnMpNIsH3HTpmvc9cedOzYcY0sDx8+oh69+sr2oMzNW7aq4tHOyVOnU/OWrWX8TzNnq9yJ/QcOoTr1G8m0bdp1pCrVa9G8+QtUeY1twE05asw46YoCv67de1FEtNUNHFEfwlGmuovRWHvg2kL6des2UMCmzXIbbVTEGIMLgRdlehyTiZOm0Dd1G8Sb6/L9+/fkwMqScph4zQSYABNgAomEgFUsTLipD/thJP36y0LyKlyYLv79t7AQxOhiHTu0o4b161GtOvUJN0RtuXbtOq1asZR+XbaCRowcQzu2bdJOorN/6/ZtavFtG2k9mTZ1ohjv8pSePXumk05fQMUKFcjTw0MqcM+eP1clwVgquAjTp09P/1u9goKC/iUoGRUrlJfuodDQUGlBmj1zBnXu1IE6delO9erWIXf3vDT0u0EUJqwjUBYnjh9LuXLlpHTp0qnKNrYxZux4Ob5ozKgR5O3tRZs3b6VI0ZZIe3vqKZS3TJmcaUvAetq2fSe1btuBzv91mpwzZhTKp+H2VKxQjjw9C9LYcROlVQ/tTZkipaoZhhggwcgfx1CB/Plp6qQJNGvOPPrnn0v07v1/qrz6Nj69fUfnfCroi6ICKxZROp/ieuPUA3Ee3b0bTAULFFAP5m0mwASYABNgAglOwCoKk3ovMmbMQNWrVVUPouzZsskbvEag2k7fPr2oRIniUlHxr1aTwsPD5bZaEp1NKA/Ozs40WigZ9kKxIAvusU5O6QmLtjvuelAQnTt/gYYNHSItYWnTpqU8bm60c9duqZihEVWr+FPDBvVkezwKFqTzFwKlwpQta1ZyEooWJGfOr8k1d265beoHCuS69RtpyuQJUvlC+oED+slswcH36MrVqxSwYa3k4yGUvOUrV9GpU6ep9je1ZBpD7UHbsTgKpQ3KlXZ7DDGAAgkr36yZ0ylvHjfq1bM7HTn6h6zL2I99iuTkGbBab5IUQnk0JhjfVrN2PamgTpowjvLlczeWnOOYABNgAkyACcQ7gRgzUByqxo110MD+0uLiXqAQfff9cKn0mFuke948Mqmrm6tcX7p0Wa6N/WB2W5nSpaKUJWMJLYi7HxI1IB3Wq8NHjsjF19eH0gnFQ5FCnh7KJmXNmsWifqoyqm3ABQgpXqyoWmjU5uPoWWL53KMUiNSpU0kFTsmDVNZuz+XLV2TlrrlzybWbq6tcm/yxsyMHJye9i10yB6PZHRwc6Od5s6lnj27SUhke/sJoeo5kAkyACTABJhDfBIzfySxoTT9hJYI14rSwfvTuN1DcyD2pXdvWZpVwTyg/sBY9iB7f5B6tIBjLnDlzZjp5aqexJJQsWXJ68/at0TTqkZkyO8vdbl06U95oJU49HtvSmqUdqLX/McL8WX/Owt0GgVsSbjB1yZDBSe4G3wsmbMMSc/PWLXKKDkekOe1RL9PUdoH8+WSS4Hv3pFUqODjYVBYZD5fc+TJ+etN6rFtOjqV99cYh0E4oW+j7kEEDaOXK1WI23586VkqDmTmCCTABJsAEmEA8ELCKhenOnbvSjYPBukWKFqH0jo70Ru19S6b6sXbdRmmpWbNuvXTHuLiYnmFWxa+yHO+y+n9r6a1QivDOntNn/tSoykeMm8H4G7iY1N//pJFIbQdjZ+BaW/TLEvlqAMx6w7T8GzduqqUyvJkqVSrZ/v0HDsqxWuZ8pi9N6tRUqWIF4WpbTVevXZODyPfu2y8Hfef8+mupSK5Zsz6Kz9r1snJ91ijDrbIsBoooXI0/L1gk+71k6TKzCrAX1i/foEC9i2OpkmaVgZlx2cQsSrxHi4UJMAEmwASYQGIiYBWF6fHjx6rZaphZ5eqWm9q0/lb2EwN5McMrX8HCch9jlLB/+MhRaVlA4O07d8irqI+cVQYrgzmCMU/jx46m4SN+pAKe3lS8ZBm6ffuORla4kzAeqOW3bcmjUBF6Gj0oHC9GRBvOnv2Lvh82Qm5Pnf4T4dUHGLh+5sxZ8ilVltzcC8oZcy9evpTl2tsJXMIaoi6wjqhL7549aPGSpbK/o0aPU48yuD150niyF+VUr1mHXPMWoHETJhFFRhJcVfPnzJSz+sBn5Kgx8vUAyngkc9pjqFJDDJAeryA4cuQP8qtagxyF8gtJniyZXBv7sRNp9C3azIyVgQH3GGzPwgSYABNgAkwgMRGwE1aQSGs0CNPgHz58SHgHEiwtlgrG5cDtBKUFYuzTGLBEKIqKrPfBA+GmykCw1lhLnj59KtrwkTJnzhQntxfwGnsxJ5QiRTDYHS7ELC4uGnUi/wPBNrN4kaPCR8ljyzXYnhFWuwFipuDpk6YHflujLes3BNCQocOkZe3Avl1GJwtYoz4ugwkwASbABJiAOQSspjCZU5m5aV4Ki04hb8PT0LdtCaBiwvWXFOT3w0eoXYfOBpt691aQwbiEipg5ey69ePFCzlTEO5waN2pIA/r1ibfmvHv3jvACSxfhHuQXWMYbdq6ICTABJsAEjBBIlAoTrDLGviOWQViT1C0zRvqX4FH4XAosR4YEY4YSm+BVBoeFS+6j+ABurZo1DA6AT2zt5vYwASbABJgAE7AVgUSpMNmqs1wuE2ACTIAJMAEmwARiQ8Aqg75jUzHnYQJMgAkwASbABJhAUiHAClNSOVLcTibABJgAE2ACTCDBCLDClGDouWImwASYABNgAkwgqRBghSmpHCluJxNgAkyACTABJpBgBFhhSjD0XDETYAJMgAkwASaQVAiwwpRUjhS3kwkwASbABJgAE0gwAklWYcLnVLZs3S4XvDdIn3z69IkOHTps1nfk9OXXDsM3806cOKkdzPtaBM6dv0D4RA4W8FcEL8RUwvF+KhYmwASYABNgAkmFQJJVmMLCwunKlSs0Y+Ys2rvvgF7eHz58oPadulDo/VCd+Jmz5tDJU6d1wo0FHD9xgiZNmW4sCccJAuAOuXjhLPn5VZLb+OnbuydtClgnP65rpS/yqMrmDSbABJgAE2ACtiQQ8yEzW9Zig7KLFvEmLPdDHxgsHd9dO3bkEGXPnk0nzZGjf1COHDmoTOlSOnEcYB0C2m9jx2dOkieL+lagdWrgUpgAE2ACTIAJxA+BBLcwnfnzrLQC5XLLR6XKVKDde/apet6gUVMaM24CFfMpLeM2b92mijO1MX7iZKrXoAn16tOfQtWUquUrV1GV6rUIbqNJU6bJ7Y6du5kqTif+1evX1LV7L5o+Y6YqbmPAZqrsX53QF8ThA76QBYt+oR9HjVWlw0bnrj1o2/adMswYA41MvMMEmAATYAJMgAkkCIEEV5hGjx1P3oUL0+mTf9DP82aLD746qkBAqdl/4CDNnjmdvv22BfUfMJjevn2rije20bFDO5o8cRwFXrxI79+/VyVtUK8e/frLQvIoWJA6iTTYHjd2lCrenI1Xr15R2/adyN7ejvr17S2zHD5ylAYNGUrdu3WhHds2yXbOX7BIxpXyLUlQ1J4/D5P7V69do337D5Cvr4/cN8ZAJojHn5C5C+lsoZI6y7WOPeKxFVwVE2ACTIAJMIHERSBBXXIYlA3rD8azpEmdmkqUKK5Dp2XzZlSxQnmqUL4cLRKWmnPnzlO5cmV10mkHZM+WjZwzZtQOJien9HJJlSolubi4kGvu3DppjAU8D3tOrdt2IKcMTjRvzizVR4DXbwiQSpijoyOFhIRS8WJF6ZclS2nY0CFUrGgRyuPmRrt276FWQvGDZcmvciXKljUrmcPAWHusHefSvDFlqOqnU6x9qlQ6YRzABJgAE2ACTOBLIZCgFiZ7e3uaPnUS7di5iwoXKUEtWrWl69eDNNjnz59P7tvZ2ZGnpwddCLyoER/fO3fvBksl78rlqxrWrjt371LExwg6fOSIXEIfPKA6db6hN2/eENreulVLWrd+o0jzUa6bN2sim24Og/jso71QJB2cnHSWrxzTxmczuC4mwASYABNgAomKQIIqTCBRxd+PDh/aR/v27KQIMbtq+k+zNAAFB99T7d+4eYvc3fOq9rGRIkVyDcVFI9LIjr0YgAwFx1KBpejI7/vJOZMzjVQbl5Q1SxbKmycPTZ08UWNJnz69rKJ+vTrSPbhy5Wp6/+4d+ftVVlVtioEqYTxshC5eRufL+OksQd372bz2kJAQOn78BN27F2LzurgCJsAEmAATYAKWEEhQhQnv4jlw8JC0urjnzUt58rhR2rSaloztO3bSgwcPxasD9stB1L4lS2r0r5SvLx0+fFTeZM0d34QCMMMO+cLDw6VbTKNQIzvp0qWjlClT0txZP9HmLVvle6CQvGaN6rRn7z55w/8orEhPnz2j33btVpWUOXNmmQbjlZo2aSzLQKQ5DFSFxMNGjv69yDcoUGfxWLPc5rVjwH/L1u2k69LmlXEFTIAJMAEmwAQsIJCgCtOHiAgaMnQ45XEvSHnyeYj3Kl2jbl07aTQfliDfMuWpS7ee1LNHN8ogxg6pS/VqVcnbuzCVrVCZ6tRvJKNgicJMtXwFC8t9/2o15T4GZivStEkjORjcq6gP+VetqQSbvc6bNw9NGDeG+g0YJMYshVDjRg2ohxjwjRu+m+hPsRKlxID1QxrlNWncUO43alRfFW4OA1XieNiwE7ztkiXTXRy+snntL168kHU4O+uOPbN55VwBE2ACTIAJMAEjBOzEgOtII/E2j0L1T548oa8cHChjhgwa9UHpCdiwlgqIcUwY6wPrji0lQihwhgTvEMJYJFOClzY+fPiIMmTMIAeyq6df/MuvtH5jAB3cF2N5QrwxBur5k8o2XpPQpFlL2dwlixcQlFoIXuOwYOFiuR109R/hTk0ht5WfRk1b0K1bt+nU8SM6cUoaXjMBJsAEmAATSAgCCa4wGeu0ojD5loyafm8sbVzjXr58SYW8ixssZtuWADnbzWACIxH3Q0Np4cJf5KsF5s+dRXXr1DaS+suMwqsfYJUb9eMIUgbEf5kkuNdMgAkwASaQGAkkaoVp6bIVVLNmdcIrAmwtipXHUD0ZhPVL+83VhtJqh8PitHX7dvIS75sqW6a0djTvMwEmwASYABNgAomcQKJWmBI5O24eE2ACTIAJMAEm8IUQSNBB318IY+4mE2ACTIAJMAEmkMQJsMKUxA8gN58JMAEmwASYABOwPQFWmGzPmGtgAkyACTABJsAEkjgBVpiS+AHk5jMBJsAEmAATYAK2J8AKk+0Zcw1MgAkwASbABJhAEifAClMSP4DcfCbABJgAE2ACTMD2BJKswnT7zh35HbctW7fTlatXbU/KghqePw+T38g7cfKUBbmMJ8XnXv7555JGosTK4Nz5C+RZuKhcDh06LNv88tVbOnTiH3rx8i19iPgotx8+CdfoD+9Yn4CtuAdeuUOBl2/LBl+/FUqnzgdZv/FGSrx59yFtP3CWLgfFfJxbSf4s7BXtPnyejp65ogQl2PrTp0jaeySQXr95l2Bt0K749IUgCr7/RDs4Vvso5/eTUdelR0/D5f/6vw+Gv5hgbiWHT12mO/cey+Ro77Wb983NGut0fwbeoH+uB8c6v6mM1uRuqq7EGh9fDEydlzNnz1Xdo/A9V3MlySpMYWHh4ttzV2jGzFniw7wHzO2vzdOdOn2GihQvSRs2biJ8IsRago8QL17yq0ZxiZUBPg8DuXjhLPn5VZLbN4MfUYMu0+jfOw8o/MUbuR3fN1nZECv94MI6aPxKK5UWU8yWvWfol7UHYwLiuGUr7pN/3krj522WrVu24XfqOWKJRS2dNH8L/fFn7B50pi3aTtVajadt+87q3EiPiTJdy/Wi1Vv+oBN/XbOoTbZIDOWhac+f6N6DZ7YoPlZljpy+ng6KhxdryK7fz1P9zlNlUWcu/Cv/18/DX8e56HqdptCOg3/Jcvr8uIyWrNP8LmecK9BTwILV+yjgt9g95L7/L4I6fbeQHjwO01NyVJA1uRusJJFHxBcDU+dl3949aVPAOnr1+rX8NJm52BzMTZjY0hUt4k1Y7oc+SFRN27f/ALVv24bGjvnRqu3q2L4taX/rLrEyUDoe2zejK/kT8/rx0xe0de+fNGNEW6s28/L1e3RHPLV3aVnFquUmtsIOHP+bcmbPRBVKFrS4aRvFTW36iDbUsIavTt7fDp2jrt9Wpek/tNGJS4iAFMkd6OLe6ZQja+L5oPSKn3pTujQpEwLHZ1vnp0+faONvJ2l4r6gPrOvrKHMnSiwM8G3Y5MmS6ztMRsMS3ML0+s0bGjVmHBXzKU34dlzX7r0o4uNH2Wi4oZq3bC3Dq1SvRUf/OGa0M0rknr37aMjQYcoubQzYTGPGTZD7+AAsPgwLl9Go0eOofCV/at+pC4WHR7mHUN+8+QsI9VX2r047dv6mKsfYxq7de2Wedes2UMCmzXK7/8AhMgtMft179pZ1oo+t2rQnuNMgptoDBnXrN6bWbTvSsuXmWzTAcfOWrbIO/Dx99oxq1KpLN27cVIUlpg24LhavPUDFaw8lx0LtqMq3YwluF8jY2QH06/pDquYOnrCK1u84odr/Ydo6mrdij3zCy+7bjco2HEFv3r6X8Zt2n6ZeI3+lqQu3U94KfeRy4dJtGXf24g1ZD+qr3Hw0KeGIrN1+Ek1fvIN86w2XbUI5kLfv/pPl9/xhCT1+9kLGIw3cjeYIrB6wOKBOD/8B0q2EfDBVo5z5q/bSTvFkjW0sT569lMW+e/+BRv20QbYffRw5Y73qfxKw6xS16jdHVW7zXrMIbqmElKXC6gSm6CeOR5Bw20EWrzkg+wX3B/qDPqK9ikxesFVyUfIdOPa3EqVKf/VGCA2fslbmxTkD2bb/rNxfsekIrdl2TG53HRb1oWdVAQY2Qh+FUbuB8wlcvWsMpnXbj6tSGjoPkADHv3H3GbKPLfvMpvaD5stjp2TGeenXYowMv69mYYKrCUxmL90lj2fdjlM0zj1j7TF2HqBeY+c7zhMck5Z9ZqncaEpb49JPpYz4WN+OZofzBtcKWHnxv0bfIHDd1Ww7UR4ThPf+camwIsS4Q2/ceSjZw52LMnDMV4pzRltwvoIVFHCIMe44zyo1Gy3TNew6TZaLa4cihribOg/++vumqo34v1doOspsVyo44ZxE/7Ao7YElrE3/uTIM/7H6wuqvXGe37vtTskN65MW5DUZwv0OGTVlDA8aukPyQRv0aZIq7IQYo11g/jZ2XGNoxfOpa+Z9FX/A/wn3ElpLgCtOYsePp4KHfacyoEXT08AEqWCA/RQptHd9269mrr/x+25aA9VSuTBmhNHSQN35TQJ6HhREUDUWgLNy5c1fuhooP4bq4uNDQ7wbTshUraeL4sRQcfI+On4j6w/399z+0bsNGGjtqJNWvX5eGfv+DWSa7ihXK0a+/LKTSpUtRo0YN5Pb3og4Inj48PDxoy+YNdHDfbnJ0dKSevfuZ1Z6vc2SnmTOmkrd3YbobbL5/vVixorRk6XJZB3527dpD+MBtnjxuqjB9GyFzF9LZQiV1lmsde+hLbnZYzmzOtGBCZ8olrAppxdMttot5uqry4+ls8PhV1KFpZbqweyp1bOZHGH8DuRPyhB6pjXe6Jdx7T56/VOW9F/pU/nEc06aizYsGU6cW/qpjBvfAqs1H6bhQVBZO7EJzx3YkO3s7wngL/5ZjqVTRfHR88zgqUzw/qd9gz4vxObiQTh3emprWLkN9Ri2VZaZMkYxWz+5DI/o2kv1YN68fYSlV1F3VHmMbQyevEf12oyuHZtLyn3qSk2Mamdy7YG5ZTou6ZYXVxUNuo1yn9Kll/BShSMBdhz6sniVuEMLKsufwBRn3LPwV7TjwFxXMm4N+Wz6MwEdRJExxN9ZWY3HdWlWjnm1qyCSNapaiMQOaqZLjZtN/zHL6rnt9unpoFv3QpxF99VXUpQYs0a/C+XNSjzbV5fYMYS1SxDFNKskFVpmGNX2pUbfp9DT6WPdqV0Omx/kD/iin6TdlZFb/MoXkPti1rFdObo/u31Qp1uAaF9jW/efQKzHGaPuS72SbcR7g/IAYOg8QN3/FXgp9+Fwyd3fNSpv3nNFQVNG/2aM70Ll/btG7/6Lc1Mj3Xrjp4NI98dd10c7+8jyaKxR+iKn2GDsPkN/Q+Y64KuW8aNGkrvSfuGk+DYv5/yAutv2sWMqTFosyIUU8csv/Nf6HcZVfJncjvzKFZTE/9mtMzcR5A3kvOIId/pcQuMBG9G1ME4WLFwIXaKsG5SlwzzTJFg8ocOEqAsUH+cfP2Uz9OtaS1wvnDOmUaLmGQg6lq3GtUlTbv7gMM8Z9VP8mtHR61PVx1qj28txr36SyqkxD3I2dB8gMZdAzXw7asngw/XMtWI4ZRPtNCRjgf/NGPNxtmD+A9q76gRyi/3+4FxUumIsO/G8kndk+kZzSpaZ2g36WRYa9eE33Hz6TeaAolhfWX19xXYN7G4LrLB5c8T+cO6aj3D55LkjGmeJuiAEyG+unsfNyw84T8sF5zdx+dGn/DHm9gN4AsdV5maAuOdzA163fSFMmT6B6devIjg4cEKVIQInBYO6ADWupRIniUuFYvnIVnTp1mmp/U0umje2Pr68PlSpVUmavWKE8FfL0oGdCqVIELrVy5cpS4cKFaOasOdIa5ObqqkTrXadNm5awOKZLR84ZM5Jr7tyqdClTpqR+fXpRyP37BIXMzc2Vftu1WxVvrD0pUqQgd/e8lClTJnr5UvMipypAz0bD+vVo0uSpdP16EOXPn0+OqWrZshnZ2dnpSR0T5NK8MWWo6hcTEL1lnypuF8GMTmnFhayCqlz1bQQu23g4SjFpH3Vs8+TKokprzgZuWDN/bCeTli6WTyfLIqFoZM3spApXxkSULJJXPGE9omKF3Gj+yr3097W75FUgl0wHpaByaU8q6pmbMOYG6fLmzkJoG5S4VCmSy21VoSY2cDOEpQF/6rSpU0plTcmSKmVUWc5O6cTNWyi2Wv1fJCwzuHjjIgjBhWytsITUqVJCKYJGihtH8mQO0iWFi8n3PRqQKe6qzBZugIsiYGhIcDNSbjpIkyF9GrmkSpVcHg/tfvZsW4Nw4YYFCsoeBE/LKMfFOb1cEJYjq7MGo3TiJo3FMV0qyiTSapeLPPrkyr8hsq4xA5tRiFB+UAbOJbhb4dqDGDoP9h0NlEof3Io+XnmkxUi9jq+FGw5tMSTf96wvz7t2TSpRrxG/ymSm2mPOeYCCtM93hCnsoXDqk9j008M9B2GBwMWq/b/WV485Yc3Fg4Mi6ue4EobzD/9T/A/K+RSgH6atlVEIK5QvJ13+954YN/aUCuTJLreVfMp6eO+G1KB61D1ACcMaN2g8bAzsXIf6RF+LEG6Me44sGSlj+rRIRrlzZNY590xx13ce4CEBijYUx3xu2WhQlzp0ULixzZHTYizZv7cfSIUxv8gLUa5puM4MFQ8yUH7OC0s7rmd4EFPESyhTUJRwjoAx+vX7yRjruV/ZwqpjvF1YdY+JiRU4/01xN8TAnH4aOi/VrUm4HuAhWxFbnZcJqjA9fPhI9q+4sIZoy+MnT2RQPnd3uU6dOhXlcXMjJY92ekv2kzkko2TCf5k2TdTTfbJkycRTV8xI+YIFC8ji0qdPL9eWKCr62oGxR/UaNqGnT55KRe3Vq9cymeJ6NNUefWWaCsuaNQtVreJPW7ZtpyaNGlLgxYu0ZPECU9nIPlVKcnCKUSyUDHbCsmJLgVWiae3Ssa6iRsUiBvPCmqGuLCEhZlFkzugoLkIxF4O2jSvRu3cxT3Ce+b6WZSpWoBev3hisw5wIe2HZmj++k7SGTVm4jSqJp3M8KSs3HENlhL98I90KcM/t/+OiTIYbu/rNGH2EsgTJnyebnLWG88tB+OrjW3CBh1WpRe9ZsmpwHT+4ucqaZqw9cLfCpQY2ypO/OU/Vxso0FocbBwSuGiyQsiUKiDE+MQ8I+s4DuGZhqYBVD4IbERQtS0TJCyUZ7j2IsfaYcx6gDH3nO8JNia36aapeS+MVhS95cgd5zidz+ErldsPMzVrCne4qFJciwoId+ug5pUmVQqeKir4eOmEI+F241qEA/X01yiOBMHO5I21sRN95cDG6fkXxz5vb/HMrRJzTYKQoS+ptghsLlvUnYgxmWaFoKu7KmHtRzPUimbie4JoCN54ihaKvidj3ENYvxcJkLnelHGVtTj/1nZfIX79aSTkTFu5t9HdQl7pSsVTKtsU6QRUm50xRT5DXrl2nAvnza/QvQ4aom3bwvWDCNmZe3bx1i5yiw5XEKcRT/tu3Ua6bmLAUqjFJCLt9+44SJdcmjCxk3AajUZRZO/v2H5TK0vFjh+UNDFa1AwfFmJxo86Gp9piqRB8D5GnerAl9P3ykzO7vX5myZHGR28Z+QhcvI7jltCWdbwny3LBKO9hq+zmzO0uzs74CcTN6Ee2eQzwGRvuLJx11cRKWC0OCpxttcckUpQzPES4TKDL6xJQ17u37GCVbX359YTUrFSUsl0QfYIoeP3cT/W92X1VS1Pnx4yfVPjaUm3etykVVVg+NBGIHN2/kg+sLyiAuwuYqS5cuXaYw4cb29vaidMJCag3BUyyeio/9eY06DVlA3h65qGvLqqqiv7K3V43BUgLvCwsPxjid3zVVPvlCiYZbVDGzK+msuXbJ5CiL69uhlt4bDCL1nQeKgnT91n2ChQ03FTzVx1WMtUd5ojZ2HqB+fee7Oe2yVT/l61XEta5s2Si3mjltiW2aqcL9Vq+qj3Rdo4wu3y+SVl3t8vDAoU8w2aKvsCx5ibFsVTd7UZtGFc36/yllKYqHsh/btaIk3Al5LC1WWJsruLZBEcLMTFg51QWzx6As/b1/urw+4P+FV3BE34rEtTDKda6eR30b7n5F7tx7Qp7R1kVzuSt5lbU5/dR3XiI/rMmwwM0SngWM3cN4teoVvVXWNKUOa66N07FmTXrKSpM6NVWqWIGWr1xNV69dk2N99u7bLy+kOb/+mpydnWnNmvVS+Vmzdr0sQdsaVcrXlw4fPkr37oWoFKciXl4UFPSvdEdhjTITUiIjPwnf+gd6/eqVdO/9b806qzZHHwNU4O9Xmd6/e0fzf15IzZo0MavOHP17kW9QoM7isWa5Wfljmwjm8fXCjYTB07gxYKCh8sRf0juvtATBfIs/fIjws8dVqpb3kk/18MnDWoAFAxOxNkcKF8gpL0qYxq6t4BjKj5sqLk64qMIKBIuEogwpeaBYnDh7TVoalBskFLoWYlwOLC9QtCBQJrTfMwQXHSwVG8T4phqVDFvclLqU9YyZs6ll63Ya4/6UuNiscVGFOwEKG1xV6R1Ti/cQvdcoqoQIh7UM7jeln5EUNf4AYVjmLt+jkccWO57CfQOLwpxlu+V4GBxLHFO8W8qU1KpcjDC4Hcrq3OUxLnZT+YzFG2uPueeBsfJjExfXfrb4tg21aNU2NlVbnAeWZLzzCv81jF9SBm2bWxD+j7m/zizHZWGyCP5n5nCHAo2HFFyfYBGNq5KfRSg9sBT+tOQ3eS7Ojx7jZk4/fLzySovLDDHwHO+6Q3sUDhjDhPFGUKgw2BvnryVy5PRl+d/G+8/gkq4U7ZqPLfe49FN5p1MaDG+IHoahTPaxpE+WpE1QhQkNnTxpPNmLp+rqNeuQa94CNG7CJGl5wZT0+XNmEt4/5FXUh0aOGiOn6quPDUL+6tWqygHRZStUpjr1GyFIDmyuU/sbqlrjG6ovXGHFihq/eUCrxkBgRbQ1Wrs42pyq+PuRp4fw84p+VKxcVYwpco+qyoBpSb09AwcPlbMEMZZq67YdcrtBI83BrPoYoAK4Glu0aCZdj1X8KyPIpNiJm5ydyKezCLO3LaV76+piAG9p+R4XJ6/2VKvdRDFeJ+omW6VcYUotxry4le8tBmtukheSmKMV1SpLjxHGNiyd1oNGzdxAWUp0kQsGjuKCooj24VGvA+68XmK8zTfC/J/BuwNhhokpgWu298illNG7IzkX6SgsancJlg11gSuqQikP8q0/nMBBea/LxCEtKbOzI5Vp+IOcAVSizveqmWfIj5v+hLmb5Yyh6zfuU1vxZGyuhEXPEHVyirK6mZvPUDpcpDHDCDNXMJsG4yQ6N/fXSN6qYQV5Ic9Vpif51P1exqEP/TvVljPLEK4MlNb+P2oUFMcdTPvH4HHcXPNX7iePJWbMvRBuUEUMnQc921YnWMrgEsA7pVzFjTZF8ijXNW606L9L8c6ymJJ1h8l9zPpTzl19/TLVHlPngdJmfWvMGkOb8P6zvqOWyW3MQFUkNv1U8hpaK9Z/PPxaQ9SZYVtZlLI7ifPs2s1QylysEzXp8RNVK++tRGmstfuqESl28IDSSEw66PjdQvmAYw73wV3r0jyh5OOYD5m4WlWkIe7GzgNkniZejXFQnC8+4r+ePnpyiOJ2VxWuZwOWl40/D5STQvJV6ivbs/PgOZkS1m0M+sb/q2it78RwgKhhB+Chfn3D+Ezsa3OCmw//7dINfpDl4HoFMcXdEAPkNdVP7TYo7Tx78SYVqjZIXmMwGxVjzjCJx6YiNOFEIcIlEHk/NDTy48ePGu0RN5nIeyEhkWKAuEa4OTtPnj6N/CDyW0NQjnAL6l2022yoPrTn3bt3hqJtEt6uY+fI0WPH26RsQ4WePvNnZE5Xd7kI656hZHrDxRNCpJhuGylmw+jEi/EIOmFxDRAWhcjg0KeRwnoV16IiIyI+RoqnN72Lch4KhSxSKEGRT569iFV9YuZg5N0QTT6L1uyPrNNhsqxfDHQV/6FPZpf9+vUbeZx69Oprdh5zEqK/wjUYieNpqbx6/TZSWJgszaY3PXgbOiYIVxcxMy5SuAUt4of86KuwakSm82wrj416mXHZNtYefedBXOoyJ29s+nn8+Al5fq3+31pzqrBamtgcR3MqTyjuwrITWdCvv2wijoOhc1r7vw8O4p1xOl1DmLCm64QbC2jdb07k1IXb5H/a0LU4LtzRL/V+GmuLEqfcL5DXEpk4earqHmXJPdnBptqYBYVjgLUyyFo9G14wlSN7dvUgs7cxW81aUq9BY51Pkyhl/zB8KHXrEvUkqYTpW1uzPfrKVw/DW8aXr1hF+DQJXtcQn+Jb0ofu3gqKVZUwbefKkUlvXu2B23oTWRgIc7u2n9/CIlTJ8bQ+89ffVPvqG9UqeNOmhYPkEzHM0LEVDG5UBr1ql4HxS7DSWCKXLl+SyQf272tJNpNp4Y77OnqWm8nEWglgYreWwKKD98kYkheXVqiiYDW0ROBeDdh1WoyZyCldMZidiZli1hJj7TF2HlirfqWcuPTzQuBFypUrJzVtEmX9V8q09Tqbi+7EFWvUGZ/cJ4m36WPAuZNwaa/ZeozaitmUEL8WY1WfJdLu0/jBLTSs1oY4ZMoY+7GKuEZj0SeG6tOXVgkz1E8l3tja2P3CWL5hQ4cQFkvFDlqZpZm+xPT4PlxERMwMKnUGadKkJcziS0xy/kIgXQgMpArlysnXEiSmtn2ubcG4gNfRL8zU7iNcLcpsO+24uO7jhZv45EwT4dJk0SSAsSwYD2VI4qK8wl2KFyA+efpSjuXAu7yggH9u8qX0M7EdN4yNOyDG+UWIcXX1qvmoJiXgpbSY7aZP8Ab31HpmBepLa2kY3vWGSQnWdnsZ6qel7YuP9KwwxQdlroMJMAEmwASYABNI0gQSfNB3kqbHjWcCTIAJMAEmwAS+CAKsMH0Rh5k7yQSYABNgAkyACcSFACtMcaHHeZkAE2ACTIAJMIEvggArTF/EYeZOMgEmwASYABNgAnEhwApTXOhxXibABJgAE2ACTOCLIGAVhQlvR7bWN3S+COrcSSbABJgAE2ACTCBJEbCKwnTu3HnK416Qylfyp8CLF5MUAG4sE2ACTIAJMAEmwARMEbCKwuTjU4JuXL9Mbq6utGnTVlN1cjwTYAJMgAkwASbABJIUAasoTOgxPvRaqJAnhYWHJSkA3FgmwASYABNgAkyACZgiYDWFCRXh+1EfPkSYqpPjmQATYAJMgAkwASaQpAhYVWHy9PSgU6fPUHh4eJKCwI1lAkyACTABJsAEmIAxAlZVmPwqV6KqVfzIq6gPde7aw1i9HMcEmAATYAJMgAkwgSRDwMGaLb1y9Rqt3xBA48eOpsqVKlqzaC6LCTABJsAEmAATYAIJRsCqCtPRP45RmdKlqG2bVjodOnHyFFFkJJUtW0YnjgOYABNgAkyACTABJpCYCVhVYXr37h1lyeKit78tvm0jw+/eCtIbz4FMgAkwASbABJgAE0isBKw2hilSWI+uXw8iFxddhent27ey/87OzomVA7eLCTABJsAEmAATYAIGCVhFYTp/IZAKeRWjU6dOU4N6dXUqO3/+ggwbPLC/ThwHMAEmwASYABNgAkwgsROwikvO06Mg/X5wHzk7ZyQHB90iLwRepFy5clLTJo0SOw9uHxNgAkyACTABJsAEdAjYCVdapE4oBzABJsAEmAATYAJMgAmoCFjFJacqjTeYABNgAkyACTABJvAZEmCF6TM8qNwlJsAEmAATYAJMwLoEWGGyLk8ujQkwASbABJgAE/gMCbDC9BkeVO4SE2ACTIAJMAEmYF0CrDBZlyeXxgSYABNgAkyACXyGBFhh+gwPKneJCTABJsAEmAATsC4BDYUpIiLCuqVzaUyACTABJsAEmAAT+AwI/B9JA9zmI9jk5QAAAABJRU5ErkJggg==;labelBorderColor=#333333;imageBorder=default;" vertex="1" parent="1">
          <mxGeometry x="81" y="370" width="588" height="84" as="geometry" />
        </mxCell>
        <mxCell id="AyBuVYPxz2zy9ibKqEu_-18" value="" style="shape=display;whiteSpace=wrap;html=1;fillColor=#dae8fc;strokeColor=#6c8ebf;" vertex="1" parent="1">
          <mxGeometry x="670" y="370" width="140" height="82" as="geometry" />
        </mxCell>
        <mxCell id="AyBuVYPxz2zy9ibKqEu_-19" value="Make sure you have a column family in Bigtable" style="text;html=1;strokeColor=none;fillColor=none;align=center;verticalAlign=middle;whiteSpace=wrap;rounded=0;" vertex="1" parent="1">
          <mxGeometry x="690" y="382" width="120" height="60" as="geometry" />
        </mxCell>
        <mxCell id="AyBuVYPxz2zy9ibKqEu_-20" value="" style="shape=display;whiteSpace=wrap;html=1;fillColor=#dae8fc;strokeColor=#6c8ebf;" vertex="1" parent="1">
          <mxGeometry x="615.22" y="570" width="184.78" height="90" as="geometry" />
        </mxCell>
        <mxCell id="AyBuVYPxz2zy9ibKqEu_-21" value="Add mapping.json file with respect to {column_family} name folder." style="text;html=1;strokeColor=none;fillColor=none;align=center;verticalAlign=middle;whiteSpace=wrap;rounded=0;" vertex="1" parent="1">
          <mxGeometry x="647.61" y="580" width="120" height="60" as="geometry" />
        </mxCell>
      </root>
    </mxGraphModel>
  </diagram>
</mxfile>
